<svg width="17" height="15" viewBox="0 0 17 15" fill="none" xmlns="http://www.w3.org/2000/svg">
<path d="M1.04284 8.48781H12.6913L7.60228 13.3084C7.19557 13.6936 7.19557 14.3258 7.60228 14.7111C8.00898 15.0963 8.66597 15.0963 9.07268 14.7111L15.945 8.20134C16.3517 7.81609 16.3517 7.19377 15.945 6.80852L9.08311 0.288922C8.88827 0.103951 8.62375 0 8.34791 0C8.07206 0 7.80754 0.103951 7.61271 0.288922C7.206 0.674171 7.206 1.2965 7.61271 1.68175L12.6913 6.51218H1.04284C0.469276 6.51218 0 6.95669 0 7.49999C0 8.04329 0.469276 8.48781 1.04284 8.48781Z" fill="#6E768E"/>
</svg>
