<svg width="13" height="12" viewBox="0 0 13 12" fill="none" xmlns="http://www.w3.org/2000/svg">
<path d="M12.1657 6.79025H2.84694L6.91818 10.6467C7.24354 10.9549 7.24354 11.4607 6.91818 11.7689C6.59281 12.0771 6.06722 12.0771 5.74186 11.7689L0.244024 6.56107C-0.0813408 6.25288 -0.0813408 5.75502 0.244024 5.44682L5.73352 0.231138C5.88938 0.0831608 6.101 0 6.32168 0C6.54235 0 6.75397 0.0831608 6.90983 0.231138C7.2352 0.539337 7.2352 1.0372 6.90983 1.3454L2.84694 5.20974H12.1657C12.6246 5.20974 13 5.56535 13 5.99999C13 6.43463 12.6246 6.79025 12.1657 6.79025Z" fill="white"/>
</svg>
