<svg width="13" height="13" viewBox="0 0 13 13" fill="none" xmlns="http://www.w3.org/2000/svg">
<path d="M0.834269 7.29025H10.1531L6.08182 11.1467C5.75646 11.4549 5.75646 11.9607 6.08182 12.2689C6.40719 12.5771 6.93278 12.5771 7.25814 12.2689L12.756 7.06107C13.0813 6.75288 13.0813 6.25502 12.756 5.94682L7.26648 0.731138C7.11062 0.583161 6.899 0.5 6.67832 0.5C6.45765 0.5 6.24603 0.583161 6.09017 0.731138C5.7648 1.03934 5.7648 1.5372 6.09017 1.8454L10.1531 5.70974H0.834269C0.375421 5.70974 0 6.06535 0 6.49999C0 6.93463 0.375421 7.29025 0.834269 7.29025Z" fill="#6E768E"/>
</svg>
