<svg width="22" height="22" viewBox="0 0 22 22" fill="none" xmlns="http://www.w3.org/2000/svg">
<path fill-rule="evenodd" clip-rule="evenodd" d="M2.50719 19.2513H19.493C20.1989 19.2513 20.6389 18.4905 20.2905 17.8763L11.793 3.20965C11.4355 2.59548 10.5555 2.59548 10.2072 3.20965L1.70969 17.8763C1.36136 18.4905 1.80136 19.2513 2.50719 19.2513ZM11.9213 16.5013H10.088V14.668H11.9213V16.5013ZM10.088 11.918C10.088 12.4222 10.5005 12.8347 11.0047 12.8347C11.5088 12.8347 11.9213 12.4222 11.9213 11.918V10.0847C11.9213 9.58049 11.5088 9.16799 11.0047 9.16799C10.5005 9.16799 10.088 9.58049 10.088 10.0847V11.918Z" fill="#EB5757"/>
</svg>
