<svg width="18" height="11" viewBox="0 0 18 11" fill="none" xmlns="http://www.w3.org/2000/svg">
<path fill-rule="evenodd" clip-rule="evenodd" d="M16.2379 0.926871L8.7144 8.45037L6.06442 5.80801C5.92215 5.66542 5.72899 5.58528 5.52757 5.58528C5.32614 5.58528 5.13299 5.66542 4.99072 5.80801C4.69374 6.10499 4.69374 6.58473 4.99072 6.88171L8.17374 10.0647C8.47072 10.3617 8.95046 10.3617 9.24744 10.0647L17.3116 2.00818C17.6086 1.7112 17.6086 1.23147 17.3116 0.934485H17.304C17.0146 0.62989 16.5349 0.62989 16.2379 0.926871ZM13.0092 0.934485C12.8669 0.791895 12.6738 0.711761 12.4723 0.711761C12.2709 0.711761 12.0778 0.791895 11.9355 0.934485L7.6407 5.22928L8.71439 6.30298L13.0092 2.00057C13.2986 1.7112 13.2986 1.22385 13.0092 0.934485ZM3.87133 10.0723L0.688311 6.88932C0.391331 6.59234 0.391331 6.10499 0.688311 5.80801C0.830581 5.66542 1.02373 5.58528 1.22516 5.58528C1.42659 5.58528 1.61974 5.66542 1.76201 5.80801L5.47807 9.5393L4.94503 10.0723C4.64805 10.3693 4.16831 10.3693 3.87133 10.0723Z" fill="#439665"/>
</svg>
