<svg width="18" height="14" viewBox="0 0 18 14" fill="none" xmlns="http://www.w3.org/2000/svg">
<path fill-rule="evenodd" clip-rule="evenodd" d="M4.1748 6.5H1.1748C0.624805 6.5 0.174805 6.05 0.174805 5.5V1.5C0.174805 0.95 0.624805 0.5 1.1748 0.5H4.1748C4.7248 0.5 5.1748 0.95 5.1748 1.5V5.5C5.1748 6.05 4.7248 6.5 4.1748 6.5ZM4.1748 13.5H1.1748C0.624805 13.5 0.174805 13.05 0.174805 12.5V8.5C0.174805 7.95 0.624805 7.5 1.1748 7.5H4.1748C4.7248 7.5 5.1748 7.95 5.1748 8.5V12.5C5.1748 13.05 4.7248 13.5 4.1748 13.5ZM7.1748 13.5H10.1748C10.7248 13.5 11.1748 13.05 11.1748 12.5V8.5C11.1748 7.95 10.7248 7.5 10.1748 7.5H7.1748C6.6248 7.5 6.1748 7.95 6.1748 8.5V12.5C6.1748 13.05 6.6248 13.5 7.1748 13.5ZM16.1748 13.5H13.1748C12.6248 13.5 12.1748 13.05 12.1748 12.5V8.5C12.1748 7.95 12.6248 7.5 13.1748 7.5H16.1748C16.7248 7.5 17.1748 7.95 17.1748 8.5V12.5C17.1748 13.05 16.7248 13.5 16.1748 13.5ZM7.1748 6.5H10.1748C10.7248 6.5 11.1748 6.05 11.1748 5.5V1.5C11.1748 0.95 10.7248 0.5 10.1748 0.5H7.1748C6.6248 0.5 6.1748 0.95 6.1748 1.5V5.5C6.1748 6.05 6.6248 6.5 7.1748 6.5ZM12.1748 5.5V1.5C12.1748 0.95 12.6248 0.5 13.1748 0.5H16.1748C16.7248 0.5 17.1748 0.95 17.1748 1.5V5.5C17.1748 6.05 16.7248 6.5 16.1748 6.5H13.1748C12.6248 6.5 12.1748 6.05 12.1748 5.5Z" fill="#439665"/>
</svg>
