<svg width="26" height="26" viewBox="0 0 26 26" fill="none" xmlns="http://www.w3.org/2000/svg">
<path fill-rule="evenodd" clip-rule="evenodd" d="M2.88889 0H23.1111C24.7 0 26 1.3 26 2.88889V23.1111C26 24.7 24.7 26 23.1111 26H2.88889C1.3 26 0 24.7 0 23.1111V2.88889C0 1.3 1.3 0 2.88889 0ZM10.3 17.2899C10.69 17.6799 11.32 17.6799 11.71 17.2899L19.29 9.69995C19.68 9.30995 19.68 8.67995 19.29 8.28995C18.9 7.89995 18.27 7.89995 17.88 8.28995L11 15.1699L8.12002 12.29C7.73002 11.9 7.10002 11.9 6.71002 12.29C6.52276 12.4768 6.41753 12.7304 6.41753 12.995C6.41753 13.2595 6.52276 13.5131 6.71002 13.6999L10.3 17.2899Z" fill="#439665"/>
</svg>
