<svg width="18" height="18" viewBox="0 0 18 18" fill="none" xmlns="http://www.w3.org/2000/svg">
<path fill-rule="evenodd" clip-rule="evenodd" d="M2 0H16C17.1 0 18 0.9 18 2V16C18 17.1 17.1 18 16 18H2C0.9 18 0 17.1 0 16V2C0 0.9 0.9 0 2 0ZM6.30002 13.2899C6.69002 13.6799 7.32002 13.6799 7.71002 13.2899L15.29 5.69995C15.68 5.30995 15.68 4.67995 15.29 4.28995C14.9 3.89995 14.27 3.89995 13.88 4.28995L7.00002 11.1699L4.12002 8.28995C3.73002 7.89995 3.10002 7.89995 2.71002 8.28995C2.52276 8.47678 2.41753 8.73043 2.41753 8.99495C2.41753 9.25947 2.52276 9.51312 2.71002 9.69995L6.30002 13.2899Z" fill="#439665"/>
</svg>
