<svg width="13" height="14" viewBox="0 0 13 14" fill="none" xmlns="http://www.w3.org/2000/svg">
<path opacity="0.7" fill-rule="evenodd" clip-rule="evenodd" d="M6.81882 0.452941L7.41176 1.64706H11.5294C11.9824 1.64706 12.3529 2.01765 12.3529 2.47059V9.05882C12.3529 9.51176 11.9824 9.88235 11.5294 9.88235H7.09059C6.78588 9.88235 6.49765 9.70941 6.35765 9.42941L5.76471 8.23529H1.64706V13.1765C1.64706 13.6294 1.27647 14 0.823529 14C0.370588 14 0 13.6294 0 13.1765V0.823529C0 0.370588 0.370588 0 0.823529 0H6.07765C6.39059 0 6.67882 0.172941 6.81882 0.452941ZM7.41176 8.23529H10.7059V3.29412H6.58823L5.76471 1.64706H1.64706V6.58824H6.58823L7.41176 8.23529Z" fill="#828282"/>
</svg>
