<svg width="15" height="16" viewBox="0 0 15 16" fill="none" xmlns="http://www.w3.org/2000/svg">
<path opacity="0.7" fill-rule="evenodd" clip-rule="evenodd" d="M7.79294 0.517647L8.47059 1.88235H13.1765C13.6941 1.88235 14.1176 2.30588 14.1176 2.82353V10.3529C14.1176 10.8706 13.6941 11.2941 13.1765 11.2941H8.10353C7.75529 11.2941 7.42588 11.0965 7.26588 10.7765L6.58823 9.41177H1.88235V15.0588C1.88235 15.5765 1.45882 16 0.941176 16C0.423529 16 0 15.5765 0 15.0588V0.941176C0 0.423529 0.423529 0 0.941176 0H6.94588C7.30353 0 7.63294 0.197647 7.79294 0.517647ZM8.47059 9.41177H12.2353V3.76471H7.52941L6.58823 1.88235H1.88235V7.52941H7.52941L8.47059 9.41177Z" fill="#828282"/>
</svg>
