<svg width="150" height="150" viewBox="0 0 150 150" fill="none" xmlns="http://www.w3.org/2000/svg">
<rect x="0.5" y="0.5" width="149" height="149" rx="4.5" fill="white"/>
<path d="M53.2634 69.5944V87.0481H47.6977V65.1096L59.1882 65.121C64.0687 65.121 65.7313 68.5566 65.7313 71.6773V87.0481H60.1756V71.7061C60.1756 70.3988 59.4977 69.5944 57.8626 69.5944H53.2634V69.5944ZM91.1098 69.3323C89.2075 69.3323 87.7352 70.3085 87.1202 71.6338C86.7558 72.4296 86.6306 73.0394 86.5877 74.0136H95.1504C95.0405 71.6338 93.9594 69.3323 91.1098 69.3323ZM86.5877 77.795C86.5877 80.6369 88.3574 82.7285 91.5171 82.7285C93.9755 82.7285 95.1973 82.0484 96.6187 80.6369L100.056 83.9134C97.8552 86.0825 95.5456 87.3998 91.4763 87.3998C86.1483 87.3998 81.0494 84.4998 81.0494 76.0477C81.0494 68.8261 85.5012 64.7378 91.351 64.7378C97.2805 64.7378 100.706 69.5242 100.706 75.7937V77.795H86.5877ZM76.3511 87.0207C71.8169 87.0207 69.8931 83.8699 69.8931 80.7579V59.1323H75.4501V65.1096H79.6394V69.5944H75.4501V80.4102C75.4501 81.6847 76.053 82.3921 77.3786 82.3921H79.6394V87.0207H76.3511ZM42.7455 62.0778H37.1415V56.7639H42.7455V62.0778ZM42.7596 87.2788C38.563 86.8763 37.1355 84.3353 37.1355 81.4032L37.1416 65.1096H42.7596V87.2788H42.7596ZM109.551 86.8101C105.363 86.4068 103.942 83.8699 103.942 80.9418V56.0076H109.551V86.8101ZM129.158 59.6111C124.075 34.8735 75.9713 33.3075 44.9654 52.15V54.2303C75.9398 38.3399 119.869 38.4335 123.871 61.2179C125.211 68.7519 120.958 76.6068 113.362 81.1216V87.0287C122.504 83.69 131.88 72.8635 129.158 59.6111ZM72.7962 102.892C51.3972 104.867 29.098 101.766 25.9778 85.0742C24.4506 76.8455 28.2058 68.1226 33.1874 62.7044V59.807C24.2195 67.6572 19.3524 77.5957 22.1543 89.339C25.7307 104.398 44.8689 112.931 74.0803 110.097C85.6379 108.971 100.765 105.261 111.282 99.4995V91.3136C101.739 96.9859 85.948 101.677 72.7962 102.892Z" fill="#0071C5"/>
<path d="M116.034 57.664C116.034 57.3925 115.875 57.3062 115.512 57.3062H115.162V58.0745C115.213 58.0745 115.467 58.0839 115.512 58.0839C115.875 58.0839 116.034 57.9628 116.034 57.7088V57.664V57.664ZM116.581 59.569H116.165C116.128 59.569 116.095 59.5456 116.079 59.5142L115.512 58.5553C115.502 58.5359 115.453 58.5125 115.434 58.5125H115.179V59.4634C115.179 59.5142 115.145 59.569 115.078 59.569H114.702C114.655 59.569 114.608 59.5142 114.608 59.4634V57.0581C114.608 56.9191 114.662 56.8609 114.78 56.8428C114.913 56.8255 115.273 56.8134 115.467 56.8134C116.157 56.8134 116.575 57.0167 116.575 57.664V57.7087C116.575 58.1093 116.375 58.3206 116.066 58.4242L116.653 59.4159C116.657 59.4359 116.67 59.4634 116.67 59.4867C116.67 59.5255 116.647 59.569 116.581 59.569L116.581 59.569ZM115.595 56.3794C114.572 56.3794 113.746 57.2219 113.746 58.2363C113.746 59.252 114.572 60.0812 115.595 60.0812C116.611 60.0812 117.446 59.252 117.446 58.2363C117.446 57.2219 116.611 56.3794 115.595 56.3794ZM115.595 60.4637C114.353 60.4637 113.362 59.4633 113.362 58.2363C113.362 57.0113 114.353 56.0083 115.595 56.0083C116.823 56.0083 117.833 57.0113 117.833 58.2363C117.833 59.4633 116.823 60.4637 115.595 60.4637Z" fill="#0071C5"/>
<rect x="0.5" y="0.5" width="149" height="149" rx="4.5" stroke="#E7EAED"/>
</svg>
