<svg width="21" height="10" viewBox="0 0 21 10" fill="none" xmlns="http://www.w3.org/2000/svg">
<path opacity="0.7" fill-rule="evenodd" clip-rule="evenodd" d="M5.56213 8H8.56213C9.11213 8 9.56213 8.45 9.56213 9C9.56213 9.55 9.11213 10 8.56213 10H5.56213C2.80213 10 0.562134 7.76 0.562134 5C0.562134 2.24 2.80213 0 5.56213 0H8.56213C9.11213 0 9.56213 0.45 9.56213 1C9.56213 1.55 9.11213 2 8.56213 2H5.56213C3.91213 2 2.56213 3.35 2.56213 5C2.56213 6.65 3.91213 8 5.56213 8ZM15.5621 0H12.5621C12.0121 0 11.5621 0.45 11.5621 1C11.5621 1.55 12.0121 2 12.5621 2H15.5621C17.2121 2 18.5621 3.35 18.5621 5C18.5621 6.65 17.2121 8 15.5621 8H12.5621C12.0121 8 11.5621 8.45 11.5621 9C11.5621 9.55 12.0121 10 12.5621 10H15.5621C18.3221 10 20.5621 7.76 20.5621 5C20.5621 2.24 18.3221 0 15.5621 0ZM6.56213 5C6.56213 5.55 7.01213 6 7.56213 6H13.5621C14.1121 6 14.5621 5.55 14.5621 5C14.5621 4.45 14.1121 4 13.5621 4H7.56213C7.01213 4 6.56213 4.45 6.56213 5Z" fill="#6E768E"/>
</svg>
