<svg width="17" height="8" viewBox="0 0 17 8" fill="none" xmlns="http://www.w3.org/2000/svg">
<path opacity="0.7" fill-rule="evenodd" clip-rule="evenodd" d="M4.2417 6.4H6.6417C7.0817 6.4 7.4417 6.76 7.4417 7.2C7.4417 7.64 7.0817 8 6.6417 8H4.2417C2.0337 8 0.241699 6.208 0.241699 4C0.241699 1.792 2.0337 0 4.2417 0H6.6417C7.0817 0 7.4417 0.36 7.4417 0.8C7.4417 1.24 7.0817 1.6 6.6417 1.6H4.2417C2.9217 1.6 1.8417 2.68 1.8417 4C1.8417 5.32 2.9217 6.4 4.2417 6.4ZM12.2417 0H9.8417C9.4017 0 9.0417 0.36 9.0417 0.8C9.0417 1.24 9.4017 1.6 9.8417 1.6H12.2417C13.5617 1.6 14.6417 2.68 14.6417 4C14.6417 5.32 13.5617 6.4 12.2417 6.4H9.8417C9.4017 6.4 9.0417 6.76 9.0417 7.2C9.0417 7.64 9.4017 8 9.8417 8H12.2417C14.4497 8 16.2417 6.208 16.2417 4C16.2417 1.792 14.4497 0 12.2417 0ZM5.0417 4C5.0417 4.44 5.4017 4.8 5.8417 4.8H10.6417C11.0817 4.8 11.4417 4.44 11.4417 4C11.4417 3.56 11.0817 3.2 10.6417 3.2H5.8417C5.4017 3.2 5.0417 3.56 5.0417 4Z" fill="#6E768E"/>
</svg>
