<svg width="15" height="16" viewBox="0 0 15 16" fill="none" xmlns="http://www.w3.org/2000/svg">
<path opacity="0.5" fill-rule="evenodd" clip-rule="evenodd" d="M9.95455 0H1.95455C1.15455 0 0.5 0.654545 0.5 1.45455V10.9091C0.5 11.3091 0.827273 11.6364 1.22727 11.6364C1.62727 11.6364 1.95455 11.3091 1.95455 10.9091V2.18182C1.95455 1.78182 2.28182 1.45455 2.68182 1.45455H9.95455C10.3545 1.45455 10.6818 1.12727 10.6818 0.727273C10.6818 0.327273 10.3545 0 9.95455 0ZM12.8636 2.90909H4.86364C4.06364 2.90909 3.40909 3.56364 3.40909 4.36364V14.5455C3.40909 15.3455 4.06364 16 4.86364 16H12.8636C13.6636 16 14.3182 15.3455 14.3182 14.5455V4.36364C14.3182 3.56364 13.6636 2.90909 12.8636 2.90909ZM5.59091 14.5455H12.1364C12.5364 14.5455 12.8636 14.2182 12.8636 13.8182V5.09091C12.8636 4.69091 12.5364 4.36364 12.1364 4.36364H5.59091C5.19091 4.36364 4.86364 4.69091 4.86364 5.09091V13.8182C4.86364 14.2182 5.19091 14.5455 5.59091 14.5455Z" fill="#6E768E"/>
</svg>
