<svg width="18" height="14" viewBox="0 0 18 14" fill="none" xmlns="http://www.w3.org/2000/svg">
<path opacity="0.5" fill-rule="evenodd" clip-rule="evenodd" d="M16.4079 0H2.40785C1.54452 0 0.852295 0.692222 0.852295 1.55556V12.4444C0.852295 13.3078 1.54452 14 2.40785 14H16.4079C17.2712 14 17.9634 13.3078 17.9634 12.4444V1.55556C17.9634 0.692222 17.2712 0 16.4079 0ZM15.6301 12.46H3.18563C2.75785 12.46 2.40785 12.11 2.40785 11.6822V2.31778C2.40785 1.89 2.75785 1.54 3.18563 1.54H15.6301C16.0579 1.54 16.4079 1.89 16.4079 2.31778V11.6822C16.4079 12.11 16.0579 12.46 15.6301 12.46ZM6.29674 7H7.8523V10.1111H10.9634V7H12.519L9.68785 4.16111C9.5323 4.00556 9.29118 4.00556 9.13563 4.16111L6.29674 7Z" fill="#6E768E"/>
</svg>
