<svg width="19" height="16" viewBox="0 0 19 16" fill="none" xmlns="http://www.w3.org/2000/svg">
<path opacity="0.5" fill-rule="evenodd" clip-rule="evenodd" d="M2.9999 8.00155C2.9999 3.51353 6.70585 -0.121319 11.2294 0.00310175C15.3975 0.118635 18.8813 3.6024 18.9968 7.77048C19.1212 12.2941 15.4864 16 10.9984 16C9.14093 16 7.44349 15.369 6.09264 14.3026C5.67494 13.9826 5.64828 13.3516 6.02154 12.9784C6.34148 12.6584 6.83916 12.6318 7.19465 12.9073C8.24333 13.7338 9.56752 14.2226 10.9984 14.2226C14.4643 14.2226 17.2638 11.3876 17.2194 7.91268C17.1749 4.60665 14.3932 1.82497 11.0872 1.78053C7.60346 1.7361 4.77734 4.53556 4.77734 8.00155H6.36814C6.76806 8.00155 6.96358 8.48146 6.68808 8.75696L4.20856 11.2454C4.03081 11.4231 3.75531 11.4231 3.57757 11.2454L1.09805 8.75696C0.813661 8.48146 1.00918 8.00155 1.4091 8.00155H2.9999ZM10.1096 5.11322C10.1096 4.74885 10.4118 4.44668 10.7762 4.44668C11.1405 4.44668 11.4427 4.74885 11.4427 5.10433V8.12597L14.0022 9.64568C14.3133 9.83231 14.4199 10.2411 14.2333 10.5611C14.0466 10.8721 13.6378 10.9788 13.3179 10.7921L10.5451 9.14799C10.2785 8.98803 10.1096 8.69475 10.1096 8.3837V5.11322Z" fill="#6E768E"/>
</svg>
