<svg width="11" height="10" viewBox="0 0 11 10" fill="none" xmlns="http://www.w3.org/2000/svg">
<path opacity="0.3" d="M10.5233 0.229417C10.3816 0.0873971 10.1892 0.00758438 9.98859 0.00758438C9.78797 0.00758438 9.59559 0.0873971 9.45389 0.229417L5.74512 3.9306L2.03636 0.221832C1.89466 0.0798127 1.70228 0 1.50166 0C1.30104 0 1.10866 0.0798127 0.96696 0.221832C0.671169 0.517623 0.671169 0.99544 0.96696 1.29123L4.67572 4.99999L0.96696 8.70876C0.671169 9.00455 0.671169 9.48237 0.96696 9.77816C1.26275 10.0739 1.74057 10.0739 2.03636 9.77816L5.74512 6.06939L9.45389 9.77816C9.74968 10.0739 10.2275 10.0739 10.5233 9.77816C10.8191 9.48237 10.8191 9.00455 10.5233 8.70876L6.81452 4.99999L10.5233 1.29123C10.8115 1.00302 10.8115 0.517623 10.5233 0.229417Z" fill="#6E768E"/>
</svg>
