<svg width="14" height="17" viewBox="0 0 14 17" fill="none" xmlns="http://www.w3.org/2000/svg">
<path opacity="0.5" fill-rule="evenodd" clip-rule="evenodd" d="M10.235 6.14706H11.7315C12.5691 6.14706 12.9832 7.16353 12.3903 7.75647L8.0703 12.0765C7.70324 12.4435 7.1103 12.4435 6.74324 12.0765L2.42324 7.75647C1.8303 7.16353 2.25383 6.14706 3.09148 6.14706H4.58795V1.44118C4.58795 0.923529 5.01148 0.5 5.52912 0.5H9.29383C9.81148 0.5 10.235 0.923529 10.235 1.44118V6.14706ZM1.76442 16.5C1.24677 16.5 0.823242 16.0765 0.823242 15.5588C0.823242 15.0412 1.24677 14.6176 1.76442 14.6176H13.0585C13.5762 14.6176 13.9997 15.0412 13.9997 15.5588C13.9997 16.0765 13.5762 16.5 13.0585 16.5H1.76442Z" fill="#6E768E"/>
</svg>
