<svg width="15" height="11" viewBox="0 0 15 11" fill="none" xmlns="http://www.w3.org/2000/svg">
<path fill-rule="evenodd" clip-rule="evenodd" d="M7.33333 0.5C4 0.5 1.15333 2.57333 0 5.5C1.15333 8.42667 4 10.5 7.33333 10.5C10.6667 10.5 13.5133 8.42667 14.6667 5.5C13.5133 2.57333 10.6667 0.5 7.33333 0.5ZM7.33333 8.83333C5.49333 8.83333 4 7.34 4 5.5C4 3.66 5.49333 2.16667 7.33333 2.16667C9.17333 2.16667 10.6667 3.66 10.6667 5.5C10.6667 7.34 9.17333 8.83333 7.33333 8.83333ZM5.33333 5.5C5.33333 4.39333 6.22667 3.5 7.33333 3.5C8.44 3.5 9.33333 4.39333 9.33333 5.5C9.33333 6.60667 8.44 7.5 7.33333 7.5C6.22667 7.5 5.33333 6.60667 5.33333 5.5Z" fill="#6E768E"/>
</svg>
