<svg width="38" height="31" viewBox="0 0 38 31" fill="none" xmlns="http://www.w3.org/2000/svg">
<path opacity="0.3" fill-rule="evenodd" clip-rule="evenodd" d="M2.95364 2.88008C2.28 2.22033 2.28 1.15457 2.95364 0.494816C3.62727 -0.164939 4.73273 -0.164939 5.40636 0.494816L33.5782 28.1199C34.2518 28.7797 34.2518 29.8454 33.5782 30.5052C32.9045 31.1649 31.8164 31.1649 31.1427 30.5052L26.4445 25.9038C24.13 26.7835 21.6255 27.291 19 27.291C10.3636 27.291 2.98818 22.0299 0 14.6034C1.33 11.2708 3.55818 8.39495 6.35636 6.21269L2.95364 2.88008ZM27.6364 14.6034C27.6364 9.93438 23.7673 6.14502 19 6.14502C18.1191 6.14502 17.2727 6.31419 16.4609 6.55102L12.7127 2.88008C14.6991 2.25416 16.8064 1.91583 19 1.91583C27.6364 1.91583 35.0118 7.17694 38 14.5865C36.8082 17.5638 34.9082 20.169 32.5073 22.2498L27.2218 17.0733C27.4636 16.2951 27.6364 15.4662 27.6364 14.6034ZM19 23.0618C14.2327 23.0618 10.3636 19.2724 10.3636 14.6034C10.3636 13.3008 10.6745 12.0659 11.21 10.9832L13.9218 13.6392C13.87 13.9437 13.8182 14.2651 13.8182 14.6034C13.8182 17.4116 16.1327 19.6784 19 19.6784C19.3455 19.6784 19.6564 19.6277 19.9845 19.56L22.6964 22.216C21.5736 22.7573 20.33 23.0618 19 23.0618ZM24.13 14.0452C23.8709 11.6768 21.9709 9.83288 19.57 9.57913L24.13 14.0452Z" fill="#6E768E"/>
</svg>
