<svg width="18" height="10" viewBox="0 0 18 10" fill="none" xmlns="http://www.w3.org/2000/svg">
<path fill-rule="evenodd" clip-rule="evenodd" d="M16.7035 0.426871L9.17997 7.95037L6.52999 5.30801C6.38772 5.16542 6.19457 5.08528 5.99314 5.08528C5.79172 5.08528 5.59857 5.16542 5.4563 5.30801C5.15931 5.60499 5.15931 6.08473 5.4563 6.38171L8.63931 9.56473C8.93629 9.86171 9.41603 9.86171 9.71301 9.56473L17.7772 1.50818C18.0742 1.2112 18.0742 0.731466 17.7772 0.434485H17.7696C17.4802 0.12989 17.0005 0.12989 16.7035 0.426871ZM13.4748 0.434485C13.3325 0.291895 13.1393 0.211761 12.9379 0.211761C12.7365 0.211761 12.5433 0.291895 12.4011 0.434485L8.10627 4.72928L9.17997 5.80298L13.4748 1.50057C13.7641 1.2112 13.7641 0.723851 13.4748 0.434485ZM4.33691 9.57234L1.15389 6.38932C0.856907 6.09234 0.856907 5.60499 1.15389 5.30801C1.29616 5.16542 1.48931 5.08528 1.69074 5.08528C1.89216 5.08528 2.08532 5.16542 2.22759 5.30801L5.94365 9.0393L5.41061 9.57234C5.11363 9.86932 4.63389 9.86932 4.33691 9.57234Z" fill="white"/>
</svg>
