<svg width="10" height="10" viewBox="0 0 10 10" fill="none" xmlns="http://www.w3.org/2000/svg">
<path opacity="0.3" d="M9.77817 0.229417C9.63647 0.0873971 9.44409 0.00758438 9.24347 0.00758438C9.04285 0.00758438 8.85047 0.0873971 8.70877 0.229417L5.00001 3.9306L1.29124 0.221832C1.14954 0.0798127 0.957163 0 0.756542 0C0.555922 0 0.363543 0.0798127 0.221843 0.221832C-0.0739478 0.517623 -0.0739478 0.99544 0.221843 1.29123L3.93061 4.99999L0.221843 8.70876C-0.0739478 9.00455 -0.0739478 9.48237 0.221843 9.77816C0.517634 10.0739 0.995451 10.0739 1.29124 9.77816L5.00001 6.06939L8.70877 9.77816C9.00456 10.0739 9.48238 10.0739 9.77817 9.77816C10.074 9.48237 10.074 9.00455 9.77817 8.70876L6.0694 4.99999L9.77817 1.29123C10.0664 1.00302 10.0664 0.517623 9.77817 0.229417Z" fill="#6E768E"/>
</svg>
