<svg width="120" height="120" viewBox="0 0 120 120" fill="none" xmlns="http://www.w3.org/2000/svg">
<rect x="0.5" y="0.5" width="119" height="119" rx="4.5" fill="white"/>
<g clip-path="url(#clip0)">
<path d="M42.0469 55.3536V69.4136H37.5024V51.7409L46.8846 51.75C50.8696 51.75 52.2271 54.5176 52.2271 57.0315V69.4136H47.6908V57.0547C47.6908 56.0016 47.1373 55.3536 45.8022 55.3536H42.0469V55.3536ZM72.949 55.1425C71.3957 55.1425 70.1936 55.9289 69.6915 56.9965C69.3939 57.6375 69.2916 58.1288 69.2566 58.9136H76.2482C76.1585 56.9965 75.2757 55.1425 72.949 55.1425ZM69.2566 61.9597C69.2566 64.2489 70.7017 65.9339 73.2816 65.9339C75.2889 65.9339 76.2865 65.386 77.4471 64.2489L80.254 66.8884C78.4567 68.6357 76.5709 69.6969 73.2482 69.6969C68.8979 69.6969 64.7345 67.3608 64.7345 60.5522C64.7345 54.7347 68.3695 51.4414 73.1459 51.4414C77.9875 51.4414 80.7845 55.2971 80.7845 60.3475V61.9597H69.2566ZM60.8983 69.3915C57.1961 69.3915 55.6252 66.8533 55.6252 64.3464V46.9258H60.1627V51.7409H63.5832V55.3536H60.1627V64.0663C60.1627 65.093 60.6549 65.6629 61.7373 65.6629H63.5832V69.3915H60.8983ZM33.4588 49.2986H28.8831V45.0179H33.4588V49.2986ZM33.4704 69.5994C30.0438 69.2751 28.8782 67.2282 28.8782 64.8662L28.8832 51.7409H33.4704V69.5994H33.4704ZM88.0063 69.2218C84.5869 68.897 83.4268 66.8533 83.4268 64.4946V44.4087H88.0063V69.2218ZM104.016 47.3115C99.8656 27.384 60.5882 26.1225 35.2714 41.3012V42.977C60.5625 30.1764 96.4314 30.2518 99.6994 48.6059C100.793 54.6749 97.3202 61.0025 91.1184 64.6395V69.3979C98.5831 66.7084 106.239 57.9871 104.016 47.3115ZM57.9957 82.177C40.5231 83.7676 22.3155 81.2699 19.7679 67.8235C18.5208 61.1948 21.587 54.168 25.6546 49.8033V47.4693C18.3321 53.7931 14.3581 61.7991 16.6459 71.259C19.566 83.3895 35.1927 90.2638 59.0442 87.981C68.4811 87.0739 80.8327 84.0854 89.4196 79.4438V72.8496C81.6279 77.419 68.7343 81.1977 57.9957 82.177Z" fill="#0071C5"/>
<path d="M93.5968 46.0349C93.5968 45.8162 93.4672 45.7467 93.1707 45.7467H92.8847V46.3656C92.9262 46.3656 93.1341 46.3732 93.1707 46.3732C93.4672 46.3732 93.5968 46.2757 93.5968 46.071V46.0349V46.0349ZM94.0431 47.5695H93.704C93.6734 47.5695 93.6466 47.5506 93.6334 47.5254L93.1707 46.7529C93.1625 46.7373 93.1226 46.7184 93.1067 46.7184H92.8989V47.4844C92.8989 47.5254 92.8704 47.5695 92.8158 47.5695H92.5089C92.4706 47.5695 92.4324 47.5254 92.4324 47.4844V45.5469C92.4324 45.4348 92.4767 45.388 92.5729 45.3734C92.6812 45.3594 92.9755 45.3497 93.1341 45.3497C93.6974 45.3497 94.0382 45.5135 94.0382 46.0349V46.071C94.0382 46.3936 93.8752 46.5638 93.6225 46.6473L94.1022 47.4462C94.1052 47.4623 94.1164 47.4844 94.1164 47.5032C94.1164 47.5345 94.0972 47.5695 94.0431 47.5695L94.0431 47.5695ZM93.238 45.0001C92.4034 45.0001 91.7284 45.6788 91.7284 46.496C91.7284 47.3142 92.4034 47.9821 93.238 47.9821C94.0682 47.9821 94.7497 47.3142 94.7497 46.496C94.7497 45.6788 94.0682 45.0001 93.238 45.0001ZM93.238 48.2902C92.224 48.2902 91.415 47.4844 91.415 46.496C91.415 45.5092 92.224 44.7012 93.238 44.7012C94.2411 44.7012 95.0653 45.5092 95.0653 46.496C95.0653 47.4844 94.2411 48.2902 93.238 48.2902Z" fill="#0071C5"/>
</g>
<rect x="0.5" y="0.5" width="119" height="119" rx="4.5" stroke="#E7EAED"/>
<defs>
<clipPath id="clip0">
<rect width="89" height="58" fill="white" transform="translate(16 31)"/>
</clipPath>
</defs>
</svg>
