<svg width="15" height="12" viewBox="0 0 15 12" fill="none" xmlns="http://www.w3.org/2000/svg">
<path d="M1.31711 9.33332H13.3501L14.6509 3.47788C14.6798 3.34798 14.6691 3.21242 14.6203 3.08863C14.5714 2.96485 14.4867 2.85851 14.3769 2.78331C14.2671 2.7081 14.1374 2.66746 14.0043 2.66663C13.8712 2.6658 13.741 2.70481 13.6302 2.77863L10.2584 5.02631L7.92964 0.368456C7.87426 0.257737 7.78915 0.164623 7.68384 0.0995459C7.57853 0.034469 7.45718 0 7.33338 0C7.20959 0 7.08824 0.034469 6.98293 0.0995459C6.87762 0.164623 6.79251 0.257737 6.73713 0.368456L4.40837 5.02631L1.03644 2.77863C0.925733 2.70483 0.795474 2.66585 0.662424 2.6667C0.529375 2.66754 0.399622 2.70818 0.289861 2.78339C0.1801 2.85859 0.0953523 2.96491 0.0465214 3.08868C-0.00230955 3.21245 -0.0129895 3.348 0.0158557 3.47788L1.31711 9.33332Z" fill="white"/>
<path d="M1.33336 9.99999V11.3333C1.33336 11.5101 1.4036 11.6797 1.52862 11.8047C1.65365 11.9298 1.82322 12 2.00003 12H12.6667C12.8435 12 13.0131 11.9298 13.1381 11.8047C13.2632 11.6797 13.3334 11.5101 13.3334 11.3333V9.99999H1.33336Z" fill="white"/>
</svg>
