<svg width="20" height="16" viewBox="0 0 20 16" fill="none" xmlns="http://www.w3.org/2000/svg">
<path d="M1.75615 12.4444H17.8001L19.5346 4.63718C19.573 4.46398 19.5588 4.28323 19.4937 4.11818C19.4286 3.95314 19.3156 3.81135 19.1692 3.71108C19.0228 3.6108 18.8498 3.55662 18.6724 3.55551C18.495 3.5544 18.3213 3.60641 18.1737 3.70484L13.6779 6.70174L10.5728 0.491275C10.499 0.343649 10.3855 0.219497 10.2451 0.132728C10.1047 0.0459587 9.94291 0 9.77785 0C9.61279 0 9.45099 0.0459587 9.31057 0.132728C9.17016 0.219497 9.05668 0.343649 8.98284 0.491275L5.87783 6.70174L1.38192 3.70484C1.23431 3.60644 1.06063 3.55447 0.883232 3.5556C0.705833 3.55673 0.53283 3.61091 0.386482 3.71118C0.240134 3.81145 0.127136 3.95322 0.0620285 4.11824C-0.0030794 4.28327 -0.0173194 4.464 0.021141 4.63718L1.75615 12.4444Z" fill="#439665"/>
<path d="M1.77781 13.3333V15.1111C1.77781 15.3469 1.87147 15.573 2.03817 15.7397C2.20486 15.9064 2.43096 16 2.66671 16H16.889C17.1247 16 17.3508 15.9064 17.5175 15.7397C17.6842 15.573 17.7779 15.3469 17.7779 15.1111V13.3333H1.77781Z" fill="#439665"/>
</svg>
