<svg width="20" height="20" viewBox="0 0 20 20" fill="none" xmlns="http://www.w3.org/2000/svg">
<path fill-rule="evenodd" clip-rule="evenodd" d="M0 10C0 4.48 4.48 0 10 0C15.52 0 20 4.48 20 10C20 15.52 15.52 20 10 20C4.48 20 0 15.52 0 10ZM3.69998 10.7L7.28998 14.29C7.67998 14.68 8.31997 14.68 8.69998 14.29L16.29 6.69999C16.68 6.30999 16.68 5.67999 16.29 5.28999C15.9 4.89999 15.27 4.89999 14.88 5.28999L7.99997 12.17L5.10998 9.28999C4.71998 8.89999 4.08998 8.89999 3.69998 9.28999C3.51272 9.47682 3.40749 9.73047 3.40749 9.99499C3.40749 10.2595 3.51272 10.5132 3.69998 10.7Z" fill="#439665"/>
</svg>
