<svg width="185" height="26" viewBox="0 0 185 26" fill="none" xmlns="http://www.w3.org/2000/svg">
<path d="M9.55923 26C8.5378 26 7.61629 25.7966 6.79471 25.3898C5.97313 24.9605 5.3847 24.4746 5.02942 23.9322V25.6271H0V0.203389H5.02942V10.3729C5.3847 9.83051 5.97313 9.35593 6.79471 8.94915C7.61629 8.51977 8.5378 8.30509 9.55923 8.30509C11.7131 8.30509 13.5339 9.17514 15.0216 10.9153C16.5316 12.6554 17.2865 14.7345 17.2865 17.1525C17.2865 19.5706 16.5316 21.6497 15.0216 23.3898C13.5339 25.1299 11.7131 26 9.55923 26ZM5.66226 20.1695C6.37282 20.9605 7.29432 21.3559 8.42677 21.3559C9.55923 21.3559 10.4696 20.9605 11.158 20.1695C11.8685 19.3785 12.2238 18.3729 12.2238 17.1525C12.2238 15.9322 11.8685 14.9266 11.158 14.1356C10.4696 13.3446 9.55923 12.9492 8.42677 12.9492C7.29432 12.9492 6.37282 13.3446 5.66226 14.1356C4.97391 14.9266 4.62973 15.9322 4.62973 17.1525C4.62973 18.3729 4.97391 19.3785 5.66226 20.1695Z" fill="#1D293E"/>
<path d="M28.2874 26C25.7782 26 23.6687 25.1977 21.959 23.5932C20.2714 21.9661 19.4276 19.8192 19.4276 17.1525C19.4276 14.6215 20.2603 12.5198 21.9256 10.8475C23.591 9.15254 25.6783 8.30509 28.1874 8.30509C30.519 8.30509 32.4841 9.02825 34.0828 10.4746C35.6816 11.9209 36.481 13.9548 36.481 16.5763C36.481 17.2316 36.4477 17.8305 36.3811 18.3729H24.2905C24.4237 19.3446 24.8789 20.0904 25.6561 20.6102C26.4332 21.1073 27.3325 21.3559 28.354 21.3559C29.2644 21.3559 30.0749 21.1751 30.7854 20.8136C31.496 20.4294 32.0289 19.9661 32.3842 19.4237L36.1146 22.2712C35.3152 23.4237 34.2383 24.339 32.8838 25.017C31.5293 25.6723 29.9971 26 28.2874 26ZM24.4237 15.0169H31.4849C31.285 14.1808 30.8631 13.548 30.2192 13.1186C29.5752 12.6893 28.8536 12.4746 28.0542 12.4746C27.2104 12.4746 26.4443 12.6893 25.756 13.1186C25.0676 13.5254 24.6235 14.1582 24.4237 15.0169Z" fill="#1D293E"/>
<path d="M118.844 24.8475C118.156 25.548 117.323 25.8983 116.346 25.8983C115.369 25.8983 114.526 25.548 113.815 24.8475C113.127 24.1243 112.783 23.2655 112.783 22.2712C112.783 21.2768 113.127 20.4294 113.815 19.7288C114.526 19.0056 115.369 18.6441 116.346 18.6441C117.323 18.6441 118.156 19.0056 118.844 19.7288C119.555 20.4294 119.91 21.2768 119.91 22.2712C119.91 23.2655 119.555 24.1243 118.844 24.8475Z" fill="#1D293E"/>
<path d="M131.039 26C128.552 26 126.454 25.1638 124.744 23.4915C123.035 21.8192 122.18 19.7062 122.18 17.1525C122.18 14.5989 123.035 12.4859 124.744 10.8136C126.454 9.14124 128.552 8.30509 131.039 8.30509C132.749 8.30509 134.326 8.75706 135.769 9.66102C137.212 10.565 138.289 11.7627 139 13.2542L134.603 15.6271C133.871 13.9322 132.683 13.0847 131.039 13.0847C129.974 13.0847 129.074 13.4689 128.342 14.2373C127.609 15.0056 127.242 15.9774 127.242 17.1525C127.242 18.3277 127.609 19.2994 128.342 20.0678C129.074 20.8362 129.974 21.2203 131.039 21.2203C132.683 21.2203 133.871 20.3729 134.603 18.678L139 21.0508C138.289 22.5424 137.212 23.7401 135.769 24.6441C134.326 25.548 132.749 26 131.039 26Z" fill="#1D293E"/>
<path d="M155.609 23.4576C153.899 25.1525 151.834 26 149.414 26C146.994 26 144.929 25.1525 143.219 23.4576C141.509 21.7401 140.654 19.6384 140.654 17.1525C140.654 14.6667 141.509 12.5763 143.219 10.8814C144.929 9.16384 146.994 8.30509 149.414 8.30509C151.834 8.30509 153.899 9.16384 155.609 10.8814C157.319 12.5763 158.174 14.6667 158.174 17.1525C158.174 19.6384 157.319 21.7401 155.609 23.4576ZM146.749 20.1017C147.46 20.8475 148.348 21.2203 149.414 21.2203C150.48 21.2203 151.357 20.8475 152.045 20.1017C152.756 19.3559 153.111 18.3729 153.111 17.1525C153.111 15.9322 152.756 14.9492 152.045 14.2034C151.357 13.4576 150.48 13.0847 149.414 13.0847C148.348 13.0847 147.46 13.4576 146.749 14.2034C146.061 14.9492 145.717 15.9322 145.717 17.1525C145.717 18.3729 146.061 19.3559 146.749 20.1017Z" fill="#1D293E"/>
<path d="M166.464 24.8475C165.775 25.548 164.943 25.8983 163.966 25.8983C162.989 25.8983 162.145 25.548 161.434 24.8475C160.746 24.1243 160.402 23.2655 160.402 22.2712C160.402 21.2768 160.746 20.4294 161.434 19.7288C162.145 19.0056 162.989 18.6441 163.966 18.6441C164.943 18.6441 165.775 19.0056 166.464 19.7288C167.174 20.4294 167.529 21.2768 167.529 22.2712C167.529 23.2655 167.174 24.1243 166.464 24.8475Z" fill="#1D293E"/>
<path d="M173.296 6.37288C172.452 6.37288 171.72 6.0678 171.098 5.45763C170.476 4.82486 170.165 4.0678 170.165 3.18644C170.165 2.30508 170.476 1.55932 171.098 0.949151C171.72 0.316383 172.452 0 173.296 0C174.184 0 174.928 0.316383 175.528 0.949151C176.149 1.55932 176.46 2.30508 176.46 3.18644C176.46 4.0678 176.149 4.82486 175.528 5.45763C174.928 6.0678 174.184 6.37288 173.296 6.37288ZM170.798 25.6271V8.67797H175.827V25.6271H170.798Z" fill="#1D293E"/>
<path d="M179.971 25.6271V0.203389H185V25.6271H179.971Z" fill="#1D293E"/>
<path d="M47.5102 26C45.0232 26 42.9248 25.1638 41.2151 23.4915C39.5053 21.8192 38.6504 19.7062 38.6504 17.1525C38.6504 14.5989 39.5053 12.4859 41.2151 10.8136C42.9248 9.14124 45.0232 8.30509 47.5102 8.30509C49.2199 8.30509 50.7965 8.75706 52.2398 9.66102C53.6831 10.565 54.7601 11.7627 55.4706 13.2542L51.0741 15.6271C50.3413 13.9322 49.1533 13.0847 47.5102 13.0847C46.4443 13.0847 45.545 13.4689 44.8123 14.2373C44.0795 15.0056 43.7131 15.9774 43.7131 17.1525C43.7131 18.3277 44.0795 19.2994 44.8123 20.0678C45.545 20.8362 46.4443 21.2203 47.5102 21.2203C49.1533 21.2203 50.3413 20.3729 51.0741 18.678L55.4706 21.0508C54.7601 22.5424 53.6831 23.7401 52.2398 24.6441C50.7965 25.548 49.2199 26 47.5102 26Z" fill="#439665"/>
<path d="M58.1573 25.6271V0.203389H63.1868V25.6271H58.1573Z" fill="#439665"/>
<path d="M69.8279 6.37288C68.9842 6.37288 68.2514 6.0678 67.6297 5.45763C67.0079 4.82486 66.697 4.0678 66.697 3.18644C66.697 2.30508 67.0079 1.55932 67.6297 0.949151C68.2514 0.316383 68.9842 0 69.8279 0C70.7161 0 71.46 0.316383 72.0595 0.949151C72.6813 1.55932 72.9921 2.30508 72.9921 3.18644C72.9921 4.0678 72.6813 4.82486 72.0595 5.45763C71.46 6.0678 70.7161 6.37288 69.8279 6.37288ZM67.3299 25.6271V8.67797H72.3593V25.6271H67.3299Z" fill="#439665"/>
<path d="M84.363 26C81.876 26 79.7777 25.1638 78.0679 23.4915C76.3581 21.8192 75.5032 19.7062 75.5032 17.1525C75.5032 14.5989 76.3581 12.4859 78.0679 10.8136C79.7777 9.14124 81.876 8.30509 84.363 8.30509C86.0728 8.30509 87.6493 8.75706 89.0926 9.66102C90.536 10.565 91.6129 11.7627 92.3235 13.2542L87.9269 15.6271C87.1941 13.9322 86.0061 13.0847 84.363 13.0847C83.2971 13.0847 82.3978 13.4689 81.6651 14.2373C80.9323 15.0056 80.5659 15.9774 80.5659 17.1525C80.5659 18.3277 80.9323 19.2994 81.6651 20.0678C82.3978 20.8362 83.2971 21.2203 84.363 21.2203C86.0061 21.2203 87.1941 20.3729 87.9269 18.678L92.3235 21.0508C91.6129 22.5424 90.536 23.7401 89.0926 24.6441C87.6493 25.548 86.0728 26 84.363 26Z" fill="#439665"/>
<path d="M106.235 25.6271L100.04 18.0678V25.6271H95.0102V0.203389H100.04V14.7458L104.902 8.67797H110.864L104.736 16.339L112.33 25.6271H106.235Z" fill="#439665"/>
</svg>
