<svg width="14" height="12" viewBox="0 0 14 12" fill="none" xmlns="http://www.w3.org/2000/svg">
<path opacity="0.5" fill-rule="evenodd" clip-rule="evenodd" d="M1.4 0.399902H12.6C13.37 0.399902 14 1.0299 14 1.7999V10.1999C14 10.9699 13.37 11.5999 12.6 11.5999H1.4C0.63 11.5999 0 10.9699 0 10.1999L0.007 1.7999C0.007 1.0299 0.63 0.399902 1.4 0.399902ZM7.371 6.4689L12.32 3.3749C12.495 3.2629 12.6 3.0739 12.6 2.8709C12.6 2.4019 12.089 2.1219 11.69 2.3669L7 5.2999L2.31 2.3669C1.911 2.1219 1.4 2.4019 1.4 2.8709C1.4 3.0739 1.505 3.2629 1.68 3.3749L6.629 6.4689C6.853 6.6089 7.147 6.6089 7.371 6.4689Z" fill="#6E768E"/>
</svg>
