<svg width="25" height="20" viewBox="0 0 25 20" fill="none" xmlns="http://www.w3.org/2000/svg">
<g clip-path="url(#clip0)">
<path fill-rule="evenodd" clip-rule="evenodd" d="M16.5728 18.8653L1.10481 3.39738C0.497138 2.78971 0.50907 1.78341 1.13132 1.16116C1.75358 0.538902 2.75988 0.52697 3.36755 1.13464L18.8355 16.6026C19.4432 17.2103 19.4312 18.2166 18.809 18.8388C18.1867 19.4611 17.1804 19.473 16.5728 18.8653Z" fill="#6E768E"/>
<path fill-rule="evenodd" clip-rule="evenodd" d="M16.5728 1.1347L1.10485 16.6027C0.497184 17.2103 0.509117 18.2166 1.13137 18.8389C1.75362 19.4611 2.75993 19.4731 3.3676 18.8654L18.8356 3.39745C19.4432 2.78978 19.4313 1.78347 18.809 1.16122C18.1868 0.538966 17.1805 0.527035 16.5728 1.1347Z" fill="#6E768E"/>
</g>
<defs>
<clipPath id="clip0">
<rect width="25" height="19.9405" fill="white" transform="translate(0 0.0297852)"/>
</clipPath>
</defs>
</svg>
