<svg width="21" height="20" viewBox="0 0 21 20" fill="none" xmlns="http://www.w3.org/2000/svg">
<g opacity="0.5">
<path d="M3.56417 6.5806H13.9123C14.1473 6.5806 14.3287 6.48015 14.3975 6.31192C14.4502 6.18292 14.4209 6.03613 14.3231 5.93579L10.1671 1.42609L10.1448 1.40386C9.75838 1.02432 9.11153 0.38916 8.52403 0.38916C8.46682 0.38916 8.41068 0.395155 8.35712 0.4069C7.84526 0.519574 7.03475 1.44407 6.72139 1.82181C6.65433 1.8107 6.58596 1.80509 6.5169 1.80509C6.00343 1.80509 5.52379 2.10876 5.31701 2.56277L3.15777 5.99953L3.14768 6.01581L3.14037 6.03258C3.1142 6.09257 3.04471 6.25193 3.14622 6.40696C3.25992 6.5806 3.48892 6.5806 3.56417 6.5806Z" fill="#6E768E"/>
<path d="M20.9459 3.6825C20.8228 3.44316 20.5289 3.34891 20.2896 3.47211L18.0978 4.59973C17.6501 4.83005 17.1336 5.3386 16.8964 5.78262L15.9119 7.62532C15.867 7.61796 15.8212 7.61309 15.7742 7.61309H0.634831C0.375124 7.61309 0.167515 7.71738 0.0652207 7.89926C-0.0370732 8.08113 -0.0183591 8.31272 0.116587 8.53471L3.31786 13.8003C3.35739 13.8653 3.40622 13.9276 3.46144 13.9866L3.22615 14.4966C3.14452 14.4876 3.06167 14.4827 2.9777 14.4827C1.72897 14.4827 0.71305 15.4986 0.71305 16.7473C0.71305 17.996 1.72897 19.012 2.9777 19.012C4.22642 19.012 5.24234 17.996 5.24234 16.7473C5.24234 15.929 4.80597 15.2106 4.15371 14.8127L4.32014 14.452C4.38315 14.4627 4.44568 14.4689 4.5065 14.4689H4.51795L5.97117 14.3317L9.21943 17.0269C9.51827 17.2749 9.87832 17.406 10.2512 17.406C10.3215 17.406 10.3923 17.4013 10.4632 17.3919C10.9101 17.3325 11.3026 17.092 11.5685 16.7147L13.766 13.5966C14.1738 13.5342 14.5343 13.2129 14.6293 12.8091L16.5247 8.564L16.5301 8.53763C16.5302 8.53714 16.5302 8.53661 16.5303 8.53612L17.7561 6.24199C17.8989 5.97478 18.2743 5.60513 18.5437 5.46648L20.7355 4.33885C20.9748 4.21565 21.069 3.92183 20.9459 3.6825ZM10.7718 16.1531C10.6643 16.3057 10.5091 16.4024 10.3348 16.4256C10.1607 16.4488 9.98544 16.3959 9.84182 16.2767L7.34173 14.2023L12.4891 13.7166L10.7718 16.1531Z" fill="#6E768E"/>
</g>
</svg>
