<svg width="25" height="16" viewBox="0 0 25 16" fill="none" xmlns="http://www.w3.org/2000/svg">
<path fill-rule="evenodd" clip-rule="evenodd" d="M23.4375 0H1.5625C0.703125 0 0 0.72 0 1.6C0 2.48 0.703125 3.2 1.5625 3.2H23.4375C24.2969 3.2 25 2.48 25 1.6C25 0.72 24.2969 0 23.4375 0ZM14.0625 12.8H1.5625C0.703125 12.8 0 13.52 0 14.4C0 15.28 0.703125 16 1.5625 16H14.0625C14.9219 16 15.625 15.28 15.625 14.4C15.625 13.52 14.9219 12.8 14.0625 12.8ZM23.4375 9.6H1.5625C0.703125 9.6 0 8.88 0 8C0 7.12 0.703125 6.4 1.5625 6.4H23.4375C24.2969 6.4 25 7.12 25 8C25 8.88 24.2969 9.6 23.4375 9.6Z" fill="#6E768E"/>
</svg>
