<svg width="21" height="26" viewBox="0 0 21 26" fill="none" xmlns="http://www.w3.org/2000/svg">
<path opacity="0.5" d="M20.011 24.2089H19.7351C19.5105 24.2089 19.3278 24.0261 19.3278 23.8016V21.7947C19.3278 21.5702 19.5105 21.3875 19.7351 21.3875H20.011C20.5841 21.3875 21 21.1275 21 20.7694C21 20.4113 20.5841 20.1514 20.011 20.1514H17.4445L12.1418 15.9169C12.1562 15.8163 12.1641 15.7136 12.1641 15.6091C12.1641 14.5765 11.4371 13.711 10.4682 13.4962V12.8863H11.0051C11.2297 12.8863 11.4124 12.7035 11.4124 12.479V11.8804H13.5353C13.7674 11.8804 14.0201 11.7344 14.1362 11.5334L16.2528 7.86725C16.3689 7.6662 16.3689 7.37433 16.2528 7.17328L14.1362 3.50712C14.0201 3.30607 13.7674 3.16016 13.5353 3.16016H11.4089C11.411 3.14358 11.4124 3.12677 11.4124 3.10961V2.08225C11.4124 1.85775 11.2297 1.67502 11.0052 1.67502H10.726V0.407223C10.726 0.182727 10.5433 0 10.3188 0H9.59021C9.36565 0 9.18298 0.182727 9.18298 0.407223V1.67502H8.90375C8.67919 1.67502 8.49652 1.85775 8.49652 2.08225V3.10967C8.49652 3.12683 8.49792 3.14364 8.50001 3.16022H6.37362C6.1415 3.16022 5.88873 3.30612 5.77267 3.50717L3.65604 7.17334C3.53993 7.37439 3.53993 7.66625 3.65604 7.86731L5.77267 11.5334C5.88879 11.7345 6.1415 11.8804 6.37362 11.8804H8.39472V12.4791C8.39472 12.7036 8.57739 12.8863 8.80194 12.8863H9.30474V14.0263C9.30474 14.3476 9.56519 14.6081 9.88649 14.6081C9.90557 14.6081 9.92442 14.607 9.94304 14.6052C9.96165 14.607 9.9805 14.6081 9.99958 14.6081C10.3112 14.6081 10.5899 14.7513 10.7737 14.9752C10.5001 14.8915 10.227 14.9011 10.0246 15.0721L9.78346 15.2757C9.59934 15.4312 9.57619 15.7065 9.73163 15.8906C9.88707 16.0747 10.1624 16.0979 10.3465 15.9425L10.5079 15.8062C10.5762 15.8255 10.6934 15.877 10.8205 15.9784L10.9006 16.0425C10.7387 16.3778 10.3962 16.6103 9.99958 16.6103C9.68049 16.6103 9.37764 16.4559 9.18938 16.1974C9.00032 15.9376 8.63649 15.8804 8.37668 16.0695C8.11693 16.2586 8.05969 16.6225 8.24882 16.8822C8.65528 17.4405 9.30975 17.7738 9.99958 17.7738C10.7632 17.7738 11.4352 17.376 11.8206 16.7771L16.0462 20.1514H5.36533L7.73682 18.1508C7.921 17.9955 7.94433 17.7202 7.789 17.536C7.63356 17.3518 7.35828 17.3285 7.17416 17.4839L4.01201 20.1514H0.988969C0.415891 20.1514 0 20.4113 0 20.7694C0 21.1275 0.409433 21.3875 0.973436 21.3875C1.18944 21.3875 1.36513 21.5702 1.36513 21.7947V23.8016C1.36513 24.0261 1.18938 24.2089 0.973436 24.2089C0.409375 24.2089 0 24.4688 0 24.8269C0 25.185 0.415891 25.445 0.988969 25.445H20.011C20.5841 25.445 21 25.185 21 24.8269C21 24.4687 20.5841 24.2089 20.011 24.2089ZM5.511 23.8016V21.7947C5.511 21.5702 5.69367 21.3875 5.91822 21.3875H7.86638C8.09093 21.3875 8.2736 21.5702 8.2736 21.7947V23.8016C8.2736 24.0261 8.09093 24.2089 7.86638 24.2089H5.91822C5.69367 24.2089 5.511 24.0261 5.511 23.8016ZM12.4194 23.8016V21.7947C12.4194 21.5702 12.6021 21.3875 12.8266 21.3875H14.7748C14.9993 21.3875 15.182 21.5702 15.182 21.7947V23.8016C15.182 24.0261 14.9993 24.2089 14.7748 24.2089H12.8266C12.6021 24.2089 12.4194 24.0261 12.4194 23.8016Z" fill="#6E768E"/>
</svg>
