<svg width="21" height="16" viewBox="0 0 21 16" fill="none" xmlns="http://www.w3.org/2000/svg">
<path opacity="0.5" d="M19.25 9.82878V9.62497C19.25 6.74321 17.8264 4.04812 15.4424 2.41521C15.3159 2.32719 15.1493 2.31521 15.0075 2.38104C14.8673 2.4481 14.7725 2.58485 14.7596 2.73993L14.4324 6.67189C14.4136 6.89575 14.2239 7.07138 13.9632 7.07138C13.9624 7.07138 13.9615 7.07138 13.9607 7.07138C13.8436 7.06154 13.7385 7.00686 13.6624 6.91798C13.5872 6.82869 13.5514 6.71545 13.5608 6.59884L13.9983 1.34884C14.0085 1.22706 13.9675 1.10615 13.8846 1.01645C13.8017 0.926297 13.6847 0.875027 13.5625 0.875027H12.0065C11.7029 0.354457 11.1446 0 10.5 0C9.85536 0 9.29709 0.354457 8.99341 0.874986H7.43749C7.3153 0.874986 7.19824 0.926256 7.11535 1.01641C7.03246 1.10615 6.99144 1.22702 7.0017 1.3488L7.43921 6.5988C7.4486 6.71545 7.41271 6.82865 7.33753 6.91794C7.26149 7.00682 7.15637 7.0615 7.00256 7.07261C6.77697 7.07261 6.58641 6.89657 6.56763 6.67144L6.24036 2.74034C6.22753 2.58526 6.1327 2.44851 5.99255 2.38145C5.85154 2.3148 5.68493 2.32719 5.55762 2.41562C3.17358 4.04812 1.75001 6.74317 1.75001 9.62497V9.82878C0.573357 10.2492 0 10.7568 0 11.375C0 13.0233 4.90736 15.75 10.5 15.75C16.0926 15.75 21 13.0233 21 11.375C21 10.7568 20.4266 10.2492 19.25 9.82878ZM11.375 7.875C11.375 8.35734 10.9828 8.74999 10.5 8.74999C10.0202 8.74999 9.63145 8.36153 9.62501 7.85006V1.75001C9.62501 1.26767 10.0172 0.875027 10.5 0.875027C10.9828 0.875027 11.375 1.26767 11.375 1.75001V7.875Z" fill="#6E768E"/>
</svg>
