<svg width="22" height="24" viewBox="0 0 22 24" fill="none" xmlns="http://www.w3.org/2000/svg">
<g opacity="0.5">
<path d="M9.91071 10.3393V1.17857H11.3036V10.3393L10.7143 10.8214L9.91071 10.3393Z" fill="#6E768E"/>
<path d="M0 6.85714H1.39286V9.26786H0V6.85714Z" fill="#6E768E"/>
<path d="M0 10.8214H1.39286V13.9821L0 13.2321V10.8214Z" fill="#6E768E"/>
<path d="M11.3571 20.5714L21.2143 14.8929V18.3214L11.3571 24V20.5714Z" fill="#6E768E"/>
<path d="M21.2143 4.92857V13.5536L19.8214 14.1964V5.88853L10.6071 1.60714V0L21.2143 4.92857Z" fill="#6E768E"/>
<path d="M16.5 8.35714L13.3929 6.85714V12.4821L16.5 14.1429V8.35714Z" fill="#6E768E"/>
<path d="M10.6071 1.60714V0L7.66071 1.25L8.30357 2.58442L10.6071 1.60714Z" fill="#6E768E"/>
<path d="M1.01786 5.67533L0.482143 4.29546L2.51786 3.43182L3.05357 4.81169L1.01786 5.67533Z" fill="#6E768E"/>
<path d="M4.60714 4.1526L4.07143 2.77273L6.32143 1.81818L6.85714 3.19806L4.60714 4.1526Z" fill="#6E768E"/>
<path d="M9.85714 20.5714L0 14.8929V18.3214L9.85714 24V20.5714Z" fill="#6E768E"/>
<path d="M16.6071 15.9107L10.6607 12.4286L4.82143 15.9107L10.6607 19.3929L16.6071 15.9107Z" fill="#6E768E"/>
</g>
</svg>
