<svg width="24" height="24" viewBox="0 0 24 24" fill="none" xmlns="http://www.w3.org/2000/svg">
<path fill-rule="evenodd" clip-rule="evenodd" d="M12.0502 23.7938C18.6388 23.7911 23.9974 18.4569 24 11.9013C24.0013 8.72361 22.7594 5.73568 20.5033 3.48784C18.2472 1.23989 15.2468 0.00137329 12.0501 0C5.4635 0 0.102809 5.33475 0.100188 11.8919C0.099291 13.9879 0.649553 16.0338 1.69529 17.8374L0 24L6.33478 22.3462C8.08018 23.2937 10.0453 23.7931 12.0453 23.7938H12.0502ZM2.86914 21.1746L6.62828 20.1932L6.99097 20.4075C8.51592 21.3081 10.264 21.7846 12.0462 21.7853H12.0502C17.5246 21.7853 21.9801 17.3509 21.9823 11.9006C21.9834 9.25934 20.9513 6.7759 19.076 4.90749C17.2008 3.03907 14.7071 2.00961 12.0542 2.0087C6.57558 2.0087 2.11996 6.44259 2.11779 11.8926C2.11702 13.7603 2.64212 15.5793 3.63636 17.153L3.87251 17.527L2.86914 21.1746ZM18.0705 14.7293C18.0104 14.6295 17.8698 14.5619 17.6615 14.4617C17.611 14.4374 17.5565 14.4112 17.4983 14.3822C17.1997 14.2334 15.7317 13.5146 15.4579 13.4154C15.1843 13.3163 14.9852 13.2667 14.7861 13.5641C14.5871 13.8616 14.0149 14.531 13.8407 14.7293C13.6665 14.9275 13.4924 14.9524 13.1939 14.8036C13.1451 14.7793 13.0786 14.7506 12.9965 14.7152C12.5762 14.5337 11.7469 14.1757 10.7927 13.3287C9.90506 12.5408 9.30582 11.5677 9.13165 11.2702C8.95747 10.9727 9.11308 10.8119 9.26255 10.6638C9.35199 10.5751 9.4547 10.4506 9.55743 10.3261C9.60899 10.2636 9.66055 10.2011 9.71045 10.1431C9.83732 9.99571 9.89231 9.88399 9.96706 9.73211C9.98026 9.70529 9.99408 9.67721 10.009 9.64746C10.1085 9.44905 10.0588 9.27559 9.98413 9.12684C9.93418 9.0273 9.65029 8.33947 9.39335 7.71694C9.26631 7.40913 9.14586 7.11728 9.06354 6.92042C8.84954 6.40885 8.63261 6.41011 8.45861 6.41113C8.43553 6.41126 8.4132 6.41139 8.39173 6.41032C8.21777 6.40163 8.0185 6.39979 7.81947 6.39979C7.62042 6.39979 7.29692 6.47417 7.02324 6.77167C7.00569 6.79074 6.9861 6.81155 6.96479 6.83418C6.65381 7.16442 5.97821 7.88187 5.97821 9.25064C5.97821 10.7057 7.03699 12.1116 7.195 12.3214L7.19741 12.3246C7.20719 12.3376 7.2247 12.3626 7.24975 12.3984C7.60727 12.9087 9.49894 15.6087 12.2981 16.8116C13.0105 17.1178 13.5666 17.3006 14.0003 17.4375C14.7156 17.6637 15.3665 17.6318 15.8809 17.5553C16.4546 17.47 17.6475 16.8365 17.8964 16.1424C18.1451 15.4481 18.1451 14.8532 18.0705 14.7293Z" fill="#439665"/>
</svg>
