<svg width="24" height="24" viewBox="0 0 24 24" fill="none" xmlns="http://www.w3.org/2000/svg">
<path fill-rule="evenodd" clip-rule="evenodd" d="M0.030815 12.8616C-0.485297 5.55201 5.55201 -0.485297 12.8616 0.030815C19.211 0.462908 24 6.00811 24 12.3815V13.6898C24 15.4181 23.0158 17.0625 21.4074 17.6986C19.451 18.4788 17.3146 17.7106 16.2463 16.2463C14.866 17.6506 12.7656 18.3588 10.5571 17.8427C8.2886 17.3026 6.50021 15.4061 6.09213 13.1136C5.35997 9.00876 8.80471 5.47999 12.8856 6.06812C15.8622 6.48821 17.9987 9.2008 17.9987 12.2134V13.7138C17.9987 14.662 18.8509 15.5982 19.7991 15.5982C20.7473 15.5982 21.5995 14.662 21.5995 13.7138V12.3935C21.5995 7.91652 18.6949 3.81163 14.3499 2.70739C7.38841 0.907005 0.907005 7.40041 2.69539 14.3619C3.81163 18.6949 7.91652 21.5995 12.3935 21.5995H16.7984C17.4586 21.5995 17.9987 22.1396 17.9987 22.7997C17.9987 23.4599 17.4586 24 16.7984 24H12.3695C6.00811 24 0.462908 19.211 0.030815 12.8616ZM8.39662 11.9974C8.39662 13.9898 10.005 15.5982 11.9974 15.5982C13.9898 15.5982 15.5982 13.9898 15.5982 11.9974C15.5982 10.005 13.9898 8.39662 11.9974 8.39662C10.005 8.39662 8.39662 10.005 8.39662 11.9974Z" fill="#439665"/>
</svg>
