<svg width="16" height="16" viewBox="0 0 16 16" fill="none" xmlns="http://www.w3.org/2000/svg">
<path opacity="0.5" fill-rule="evenodd" clip-rule="evenodd" d="M1.77778 0H14.2222C15.2 0 16 0.8 16 1.77778V14.2222C16 15.2 15.2 16 14.2222 16H1.77778C0.8 16 0 15.2 0 14.2222V1.77778C0 0.8 0.8 0 1.77778 0ZM3.55556 11.5556C3.55556 12.0444 3.95556 12.4444 4.44444 12.4444C4.93333 12.4444 5.33333 12.0444 5.33333 11.5556V7.11111C5.33333 6.62222 4.93333 6.22222 4.44444 6.22222C3.95556 6.22222 3.55556 6.62222 3.55556 7.11111V11.5556ZM8 12.4444C7.51111 12.4444 7.11111 12.0444 7.11111 11.5556V4.44444C7.11111 3.95556 7.51111 3.55556 8 3.55556C8.48889 3.55556 8.88889 3.95556 8.88889 4.44444V11.5556C8.88889 12.0444 8.48889 12.4444 8 12.4444ZM10.6667 11.5556C10.6667 12.0444 11.0667 12.4444 11.5556 12.4444C12.0444 12.4444 12.4444 12.0444 12.4444 11.5556V9.77778C12.4444 9.28889 12.0444 8.88889 11.5556 8.88889C11.0667 8.88889 10.6667 9.28889 10.6667 9.77778V11.5556Z" fill="#6E768E"/>
</svg>
