<svg width="16" height="16" viewBox="0 0 16 16" fill="none" xmlns="http://www.w3.org/2000/svg">
<g opacity="0.6">
<path d="M3.33333 11.6667H3V12.3333H3.33333C3.52 12.3333 3.66667 12.1867 3.66667 12C3.66667 11.8133 3.52 11.6667 3.33333 11.6667Z" fill="#6E768E"/>
<path d="M6.83333 11.6667H6.33333V13.6667H6.83333C6.92667 13.6667 7 13.5933 7 13.5V11.8333C7 11.74 6.92667 11.6667 6.83333 11.6667Z" fill="#6E768E"/>
<path d="M11.5 10.3333C8.28667 10.3333 5.66667 7.71333 5.66667 4.5C5.66667 2.69333 6.49333 1.07333 7.79333 2.38419e-07H1.83333C0.82 2.38419e-07 0 0.82 0 1.83333V14.1667C0 15.18 0.82 16 1.83333 16H11.5C12.5133 16 13.3333 15.18 13.3333 14.1667V10.04C12.76 10.2267 12.14 10.3333 11.5 10.3333ZM3.33333 13.3333H3V14.1667C3 14.44 2.77333 14.6667 2.5 14.6667C2.22667 14.6667 2 14.44 2 14.1667V11.1667C2 10.8933 2.22667 10.6667 2.5 10.6667H3.33333C4.06667 10.6667 4.66667 11.2667 4.66667 12C4.66667 12.7333 4.06667 13.3333 3.33333 13.3333ZM8 13.5C8 14.14 7.47333 14.6667 6.83333 14.6667H5.83333C5.56 14.6667 5.33333 14.44 5.33333 14.1667V11.1667C5.33333 10.8933 5.56 10.6667 5.83333 10.6667H6.83333C7.47333 10.6667 8 11.1933 8 11.8333V13.5ZM10.8333 12.3333C11.1093 12.3333 11.3333 12.5573 11.3333 12.8333C11.3333 13.1093 11.1093 13.3333 10.8333 13.3333H9.66667V14.1667C9.66667 14.4427 9.44267 14.6667 9.16667 14.6667C8.89067 14.6667 8.66667 14.4427 8.66667 14.1667V11.8333C8.66667 11.19 9.19 10.6667 9.83333 10.6667H10.8333C11.1093 10.6667 11.3333 10.8907 11.3333 11.1667C11.3333 11.4427 11.1093 11.6667 10.8333 11.6667H9.83333C9.74133 11.6667 9.66667 11.7413 9.66667 11.8333V12.3333H10.8333Z" fill="#6E768E"/>
<path d="M11.5 0C9.01867 0 7 2.01867 7 4.5C7 6.98133 9.01867 9 11.5 9C13.9813 9 16 6.98133 16 4.5C16 2.01867 13.9813 0 11.5 0ZM13.3333 5.16667H12.1667V6.33333C12.1667 6.70133 11.868 7 11.5 7C11.132 7 10.8333 6.70133 10.8333 6.33333V5.16667H9.66667C9.29867 5.16667 9 4.868 9 4.5C9 4.132 9.29867 3.83333 9.66667 3.83333H10.8333V2.66667C10.8333 2.29867 11.132 2 11.5 2C11.868 2 12.1667 2.29867 12.1667 2.66667V3.83333H13.3333C13.7013 3.83333 14 4.132 14 4.5C14 4.868 13.7013 5.16667 13.3333 5.16667Z" fill="#6E768E"/>
</g>
</svg>
