<svg width="12" height="16" viewBox="0 0 12 16" fill="none" xmlns="http://www.w3.org/2000/svg">
<path opacity="0.5" fill-rule="evenodd" clip-rule="evenodd" d="M0.495117 5.75244C0.495117 2.57216 3.06728 0 6.24756 0C9.42783 0 12 2.57216 12 5.75244C12 9.17925 8.36774 13.9045 6.88032 15.7042C6.55161 16.0986 5.95172 16.0986 5.62301 15.7042C4.12737 13.9045 0.495117 9.17925 0.495117 5.75244ZM4.19311 5.75244C4.19311 6.88649 5.1135 7.80688 6.24756 7.80688C7.38161 7.80688 8.302 6.88649 8.302 5.75244C8.302 4.61839 7.38161 3.698 6.24756 3.698C5.1135 3.698 4.19311 4.61839 4.19311 5.75244Z" fill="#6E768E"/>
</svg>
