<svg width="16" height="16" viewBox="0 0 16 16" fill="none" xmlns="http://www.w3.org/2000/svg">
<path opacity="0.5" fill-rule="evenodd" clip-rule="evenodd" d="M16 11.2V1.6C16 0.72 15.28 0 14.4 0H4.8C3.92 0 3.2 0.72 3.2 1.6V11.2C3.2 12.08 3.92 12.8 4.8 12.8H14.4C15.28 12.8 16 12.08 16 11.2ZM7.52 8.424L8.824 10.168L10.888 7.592C11.048 7.392 11.352 7.392 11.512 7.592L13.88 10.552C14.088 10.816 13.904 11.2 13.568 11.2H5.6C5.272 11.2 5.08 10.824 5.28 10.56L6.88 8.424C7.04 8.216 7.36 8.216 7.52 8.424ZM0 14.4V4C0 3.56 0.36 3.2 0.8 3.2C1.24 3.2 1.6 3.56 1.6 4V13.6C1.6 14.04 1.96 14.4 2.4 14.4H12C12.44 14.4 12.8 14.76 12.8 15.2C12.8 15.64 12.44 16 12 16H1.6C0.72 16 0 15.28 0 14.4Z" fill="#6E768E"/>
</svg>
