<svg width="14" height="16" viewBox="0 0 14 16" fill="none" xmlns="http://www.w3.org/2000/svg">
<path opacity="0.5" fill-rule="evenodd" clip-rule="evenodd" d="M10.2353 5.64706H11.7318C12.5694 5.64706 12.9835 6.66353 12.3906 7.25647L8.07061 11.5765C7.70355 11.9435 7.11061 11.9435 6.74355 11.5765L2.42355 7.25647C1.83061 6.66353 2.25414 5.64706 3.09178 5.64706H4.58825V0.941176C4.58825 0.423529 5.01178 0 5.52943 0H9.29414C9.81178 0 10.2353 0.423529 10.2353 0.941176V5.64706ZM1.76472 16C1.24708 16 0.823547 15.5765 0.823547 15.0588C0.823547 14.5412 1.24708 14.1176 1.76472 14.1176H13.0588C13.5765 14.1176 14 14.5412 14 15.0588C14 15.5765 13.5765 16 13.0588 16H1.76472Z" fill="#6E768E"/>
</svg>
