<svg width="17" height="16" viewBox="0 0 17 16" fill="none" xmlns="http://www.w3.org/2000/svg">
<path opacity="0.5" fill-rule="evenodd" clip-rule="evenodd" d="M9.68045 0H16.085C16.5882 0 16.9999 0.400586 16.9999 0.890191V5.34115C16.9999 5.83075 16.5882 6.23134 16.085 6.23134H11.5103L8.76551 8.90191V0.890191C8.76551 0.400586 9.17723 0 9.68045 0ZM13.0566 10.6556L15.3805 10.9137C16.3046 11.0206 16.9999 11.7772 16.9908 12.6763V14.2163C16.9908 15.2223 16.1307 16.059 15.0969 15.9967C7.29246 15.5249 1.04345 9.45383 0.558537 1.8516C0.494491 0.845681 1.35453 0.00890191 2.38841 0.00890191H3.97125C4.90448 0.00890191 5.68218 0.685447 5.79197 1.58454L6.0573 3.82782C6.12135 4.37084 5.92921 4.90495 5.53579 5.28773L3.84316 6.93459C5.16066 9.46273 7.28331 11.5191 9.87258 12.8009L11.5561 11.163C11.9495 10.7802 12.4984 10.5933 13.0566 10.6556Z" fill="#6E768E"/>
</svg>
