<svg width="15" height="10" viewBox="0 0 15 10" fill="none" xmlns="http://www.w3.org/2000/svg">
<path opacity="0.5" fill-rule="evenodd" clip-rule="evenodd" d="M15 0.833333C15 1.29167 14.625 1.66667 14.1667 1.66667H0.833334C0.375001 1.66667 0 1.29167 0 0.833333C0 0.375 0.375001 0 0.833334 0H14.1667C14.625 0 15 0.375 15 0.833333ZM14.1667 10H10.8333C10.375 10 10 9.625 10 9.16667C10 8.70833 10.375 8.33333 10.8333 8.33333H14.1667C14.625 8.33333 15 8.70833 15 9.16667C15 9.625 14.625 10 14.1667 10ZM5.83333 5.83333H14.1667C14.625 5.83333 15 5.45833 15 5C15 4.54167 14.625 4.16667 14.1667 4.16667H5.83333C5.375 4.16667 5 4.54167 5 5C5 5.45833 5.375 5.83333 5.83333 5.83333Z" fill="#6E768E"/>
</svg>
