<svg width="22" height="22" viewBox="0 0 22 22" fill="none" xmlns="http://www.w3.org/2000/svg">
<path fill-rule="evenodd" clip-rule="evenodd" d="M1.83301 11.0002C1.83301 5.94016 5.93967 1.8335 10.9997 1.8335C16.0597 1.8335 20.1663 5.94016 20.1663 11.0002C20.1663 16.0602 16.0597 20.1668 10.9997 20.1668C5.93967 20.1668 1.83301 16.0602 1.83301 11.0002ZM5.22465 11.6418L8.51548 14.9327C8.87298 15.2902 9.45965 15.2902 9.80798 14.9327L16.7655 7.97516C17.123 7.61766 17.123 7.04016 16.7655 6.68266C16.408 6.32516 15.8305 6.32516 15.473 6.68266L9.16632 12.9893L6.51715 10.3493C6.15965 9.99182 5.58215 9.99182 5.22465 10.3493C5.053 10.5206 4.95654 10.7531 4.95654 10.9956C4.95654 11.238 5.053 11.4706 5.22465 11.6418Z" fill="#439665"/>
</svg>
