<svg width="49" height="46" viewBox="0 0 49 46" fill="none" xmlns="http://www.w3.org/2000/svg">
<path d="M0.5 6C0.5 2.96244 2.96243 0.5 6 0.5H48.5V45.5H6C2.96243 45.5 0.5 43.0376 0.5 40V6Z" fill="#F4F4F6" stroke="#D7DEDA"/>
<path opacity="0.7" fill-rule="evenodd" clip-rule="evenodd" d="M18.952 19.28L16.808 17.136L17.936 16L32.12 30.192L30.992 31.32L28.256 28.584C27.184 29.008 26.016 29.24 24.8 29.24C20.8 29.24 17.384 26.752 16 23.24C16.616 21.664 17.648 20.304 18.952 19.28ZM24.8 18.84C27.832 18.84 30.536 20.544 31.856 23.24C31.384 24.216 30.72 25.056 29.928 25.736L31.056 26.864C32.168 25.88 33.048 24.648 33.6 23.24C32.216 19.728 28.8 17.24 24.8 17.24C23.784 17.24 22.808 17.4 21.888 17.696L23.208 19.016C23.728 18.912 24.256 18.84 24.8 18.84ZM23.944 19.752L25.6 21.408C26.056 21.608 26.424 21.976 26.624 22.432L28.28 24.088C28.344 23.816 28.392 23.528 28.392 23.232C28.4 21.248 26.784 19.64 24.8 19.64C24.504 19.64 24.224 19.68 23.944 19.752ZM22.808 23.136L24.896 25.224C24.864 25.232 24.832 25.24 24.8 25.24C23.696 25.24 22.8 24.344 22.8 23.24C22.8 23.22 22.802 23.204 22.804 23.188C22.806 23.172 22.808 23.156 22.808 23.136ZM21.488 21.816L20.088 20.416C19.12 21.152 18.304 22.096 17.744 23.24C19.064 25.936 21.768 27.64 24.8 27.64C25.56 27.64 26.296 27.528 27 27.336L26.216 26.552C25.784 26.736 25.304 26.84 24.8 26.84C22.816 26.84 21.2 25.224 21.2 23.24C21.2 22.736 21.304 22.256 21.488 21.816Z" fill="#6E768E"/>
</svg>
