<svg width="174" height="24" viewBox="0 0 174 24" fill="none" xmlns="http://www.w3.org/2000/svg">
<rect width="36" height="24" rx="4" fill="#2A2A6C"/>
<path fill-rule="evenodd" clip-rule="evenodd" d="M22.7627 13.2526C22.7673 12.109 21.8242 11.6151 21.0923 11.2318C20.6289 10.9892 20.2502 10.7908 20.2502 10.5001C20.2502 10.2526 20.4902 9.99011 21.0002 9.92261C21.6072 9.86255 22.2191 9.96885 22.7702 10.2301L23.0852 8.73011C22.5479 8.52863 21.9791 8.4245 21.4052 8.42261C19.6352 8.42261 18.4052 9.36761 18.4052 10.7176C18.4052 11.7151 19.2977 12.2701 19.9727 12.6001C20.6477 12.9301 20.9102 13.1626 20.9027 13.4626C20.9027 13.9276 20.3477 14.1376 19.8302 14.1451C19.1919 14.1533 18.562 13.9984 18.0002 13.6951L17.6777 15.1951C18.3133 15.4432 18.9904 15.568 19.6727 15.5626C21.5552 15.5626 22.7927 14.6326 22.8002 13.1926L22.7627 13.2526ZM17.895 8.54272L16.395 15.4802H14.595L16.095 8.54272H17.895ZM25.4399 13.0426L26.3849 10.4401L26.9324 13.0426H25.4399ZM29.1077 15.5026H27.4427L27.2252 14.4676H24.9677L24.6002 15.5026H22.7102L25.4027 9.07506C25.5268 8.76925 25.8227 8.56808 26.1527 8.56506H27.6527L29.1077 15.5026ZM12.4576 15.4575L15.3676 8.52003H13.4176L11.5501 13.2375L10.8001 9.22503C10.7337 8.81729 10.3807 8.51835 9.96762 8.52003H6.91512L6.87012 8.72253C7.48237 8.84232 8.07707 9.03887 8.64012 9.30753C8.87994 9.42028 9.04245 9.65122 9.06762 9.91503L10.5001 15.4575H12.4576Z" fill="white"/>
<rect x="46" y="0.000244141" width="35.9998" height="23.9998" rx="4" fill="white"/>
<path d="M52.66 13.425V19.545H58.8549L59.4999 18.63L60.1299 19.545H63.9174V18.165H64.3374C64.7186 18.1683 65.0981 18.1127 65.4624 18V19.545H68.0349V18.45L68.9049 19.545H80.6198C81.1013 19.5534 81.5751 19.4232 81.9848 19.17V21.75C81.6416 23.0791 80.44 24.0058 79.0673 24H49C47.3431 24 46 22.6568 46 21V11.5501H47.71L48.0625 10.6351H48.9025L49.2475 11.5501H63.0024V10.4551L63.8724 11.5501H67.4799V10.9951C68.0089 11.3716 68.6457 11.5663 69.2948 11.5501H71.4473L71.7923 10.6351H72.6323L72.9998 11.5501H76.6748V10.3651L77.4248 11.5501H79.9598V5.43009H77.2673V6.67509L76.4648 5.43009H74.1098V7.00508L73.3598 5.43009H69.3548C68.6773 5.41046 68.0142 5.62797 67.4799 6.04509V5.43009H54.2499L53.7999 6.75009L53.35 5.40009H50.35V6.97508L49.645 5.40009H47.2L46 8.25008V3.00011C46 1.34327 47.3431 0.000129559 49 0.000129559H79.0673C80.4456 -0.0126109 81.6552 0.915501 81.9998 2.25011V13.425H60.1449L59.4999 14.325L58.8699 13.425H52.66Z" fill="#296DB6"/>
<path fill-rule="evenodd" clip-rule="evenodd" d="M61.9898 14.4H64.3223V14.37C64.7107 14.3374 65.0944 14.4732 65.3757 14.7431C65.657 15.0129 65.8087 15.3906 65.7923 15.78C65.8019 16.1741 65.6443 16.5538 65.3585 16.8254C65.0727 17.0969 64.6854 17.2348 64.2923 17.205H63.0173V18.6H61.9898V14.4ZM57.0322 15.27V14.37H53.6348V18.6H57.0322V17.7H54.6548V16.95H56.9872V16.035H54.6548V15.285L57.0322 15.27ZM60.0997 16.5L61.7947 14.4H60.5497L59.4997 15.705L58.4572 14.37H57.1822L58.8997 16.5L57.2497 18.6H58.4797L59.4997 17.25L60.5197 18.615H61.8097L60.0997 16.5ZM64.232 16.3351H63.017V15.2701H64.232C64.5178 15.2701 64.7495 15.5018 64.7495 15.7876C64.7495 16.0734 64.5178 16.3051 64.232 16.3051V16.3351ZM70.1271 15.5924C70.2141 16.3297 69.6869 16.9979 68.9496 17.0849L70.3671 18.5999H69.0846L67.8246 17.0999H67.3596V18.5999H66.3396V14.4149H68.6346C69.3719 14.3279 70.0401 14.8551 70.1271 15.5924ZM68.5445 16.245H67.3595V15.27H68.5445C68.6779 15.2526 68.8122 15.2939 68.9128 15.383C69.0135 15.4722 69.0706 15.6005 69.0695 15.735C69.0732 15.8703 69.0168 16.0003 68.9155 16.09C68.8142 16.1797 68.6784 16.22 68.5445 16.2V16.245ZM74.0195 14.415V15.315L71.6421 15.285V16.035H73.9595V16.95H71.6421V17.7H74.0195V18.6H70.6071V14.415H74.0195ZM76.8472 16.0649H75.8647C75.7129 16.0954 75.5576 16.0314 75.4715 15.9026C75.3853 15.7739 75.3853 15.6059 75.4715 15.4772C75.5576 15.3485 75.7129 15.2844 75.8647 15.3149H77.6872L78.0922 14.4149H75.8947C75.5208 14.3716 75.1464 14.4918 74.8677 14.7447C74.5889 14.9976 74.4329 15.3586 74.4397 15.7349C74.4169 16.0851 74.5515 16.4272 74.8068 16.668C75.0621 16.9088 75.4115 17.0231 75.7597 16.9799H76.7497C76.9016 16.9494 77.0568 17.0135 77.143 17.1422C77.2291 17.2709 77.2291 17.4389 77.143 17.5676C77.0568 17.6964 76.9016 17.7604 76.7497 17.7299H74.5597V18.6299H76.7497C77.1277 18.6608 77.5005 18.5267 77.7722 18.2622C78.0439 17.9977 78.188 17.6286 78.1672 17.2499C78.1862 16.9032 78.0492 16.5663 77.7937 16.3311C77.5383 16.096 77.1911 15.9874 76.8472 16.0349V16.0649ZM81.5947 15.3149H79.7722L79.7497 15.2849C79.5978 15.2544 79.4425 15.3185 79.3564 15.4472C79.2703 15.5759 79.2703 15.7439 79.3564 15.8726C79.4425 16.0014 79.5978 16.0654 79.7497 16.0349H80.7697C81.2885 15.9816 81.7835 16.2653 81.9997 16.7399V17.7449C81.7931 18.3167 81.2246 18.6751 80.6197 18.6149H78.4672V17.7149H80.6347C80.7865 17.7454 80.9418 17.6813 81.0279 17.5526C81.1141 17.4239 81.1141 17.2559 81.0279 17.1272C80.9418 16.9985 80.7865 16.9344 80.6347 16.9649H79.6672C79.3189 17.0081 78.9695 16.8937 78.7143 16.653C78.459 16.4122 78.3244 16.0701 78.3472 15.7199C78.3403 15.3436 78.4963 14.9826 78.7751 14.7297C79.0539 14.4768 79.4283 14.3566 79.8022 14.3999H81.9997L81.5947 15.3149Z" fill="#296DB6"/>
<path fill-rule="evenodd" clip-rule="evenodd" d="M65.0873 7.71053C65.1038 8.38664 64.6038 8.96456 63.9323 9.04552L65.3423 10.6055H64.0673L62.8073 9.10552H62.3423V10.6055H61.2998V6.37554H63.5873C63.9695 6.32541 64.3546 6.44387 64.6425 6.70013C64.9304 6.95638 65.0928 7.32512 65.0873 7.71053ZM49.1725 6.37561H47.8375L46 10.6056H47.11L47.5 9.75059H49.4725L49.8325 10.6356H50.9875L49.1725 6.37561ZM47.7849 8.89534L48.1974 7.90535L48.4674 7.24536L48.7374 7.90535L49.1424 8.89534H47.7849ZM53.9501 8.82059L54.7751 6.37561H56.4175V10.6056H55.4276V7.8306V7.18561L55.2326 7.8306L54.2501 10.6056H53.3501L52.3901 7.8306L52.1801 7.18561V7.8306V10.6056H51.1826V6.37561H52.8401L53.6801 8.82059L53.8151 9.28559L53.9501 8.82059ZM60.6249 7.2756V6.37561H57.2499V10.6056H60.6249V9.70559H58.2474V8.95559H60.5649V8.0406H58.2474V7.2906L60.6249 7.2756ZM63.5274 8.20538H62.3424V7.27539H63.5274C63.6602 7.26053 63.7932 7.30263 63.8932 7.39125C63.9933 7.47987 64.0511 7.60673 64.0524 7.74038C64.0561 7.87567 63.9997 8.00566 63.8984 8.09539C63.7971 8.18513 63.6613 8.2254 63.5274 8.20538ZM65.5823 10.6056V6.37561H66.6098V10.6056H65.5823ZM69.3322 7.29039H70.4347V6.3754H69.2497C68.6919 6.34014 68.1466 6.55067 67.7572 6.95163C67.3678 7.35258 67.1732 7.90383 67.2248 8.46038V8.52038C67.1621 9.06898 67.3444 9.6173 67.7231 10.0191C68.1018 10.421 68.6384 10.6354 69.1897 10.6054H69.2497L69.6622 9.70537H69.3247C69.0135 9.72137 68.7112 9.59826 68.4997 9.36936C68.2882 9.14046 68.1893 8.82941 68.2297 8.52038V8.46038C68.1941 8.15376 68.2952 7.84699 68.5061 7.62161C68.717 7.39624 69.0164 7.27509 69.3247 7.29039H69.3322ZM71.5673 6.37561H72.9173L74.7248 10.6356H73.5698L73.2098 9.75059H71.2073L70.8473 10.6056H69.7523L71.5673 6.37561ZM71.5372 8.89534L71.9272 7.90535L72.1972 7.24536L72.4522 7.90535L72.8572 8.89534H71.5372ZM77.9573 8.6256V6.37561H78.9998V10.6056H77.7623L76.1948 8.2206L75.9248 7.7556V8.2506V10.6356H74.9199V6.40561H76.1723L77.6723 8.6556L77.9573 9.13559V8.6256Z" fill="#296DB6"/>
<rect x="92" width="36" height="24" rx="4" fill="white"/>
<path d="M116.075 13.9274H117.808H118.018C118.376 13.8582 118.632 13.5418 118.625 13.1774C118.612 12.8199 118.365 12.5141 118.018 12.4274C117.948 12.4194 117.877 12.4194 117.808 12.4274H116.075V13.9274Z" fill="#40A648"/>
<path d="M117.605 3C115.948 3 114.605 4.34315 114.605 6V9.1125H118.842C118.942 9.10076 119.043 9.10076 119.142 9.1125C120.095 9.1575 120.807 9.6525 120.807 10.5075C120.788 11.2572 120.185 11.8603 119.435 11.88C120.41 11.9475 121.152 12.4875 121.152 13.335C121.152 14.1825 120.327 14.835 119.24 14.835H114.59V21H119C120.657 21 122 19.6569 122 18V3H117.605Z" fill="#40A648"/>
<path d="M118.415 10.7324C118.442 10.3613 118.176 10.0329 117.808 9.98242H117.643H116.075V11.4299H117.643C117.697 11.4384 117.753 11.4384 117.808 11.4299C118.16 11.3841 118.422 11.0804 118.415 10.7249V10.7324Z" fill="#40A648"/>
<path d="M101 3C99.3431 3 98 4.34315 98 6V13.4025C98.7999 13.8215 99.6849 14.0524 100.588 14.0775C101.008 14.1265 101.428 13.9881 101.737 13.6992C102.047 13.4103 102.213 13.0001 102.193 12.5775V9.0975H104.75V12.5775C104.75 13.9275 103.91 15.03 101.06 15.03C100.029 15.0292 99.0011 14.9033 98 14.655V21H102.403C104.059 21 105.403 19.6569 105.403 18V3H101Z" fill="#0D67B0"/>
<path d="M109.317 3C107.661 3 106.317 4.34315 106.317 6V9.9225C107.067 9.2775 108.395 8.865 110.517 8.97C111.312 9.0174 112.1 9.13791 112.872 9.33V10.5975C112.176 10.2237 111.41 9.99898 110.622 9.9375C109.01 9.825 108.035 10.6125 108.035 12C108.035 13.3875 109.01 14.19 110.622 14.0625C111.408 13.9907 112.172 13.7665 112.872 13.4025V14.67C112.1 14.8637 111.312 14.9842 110.517 15.03C108.395 15.135 107.075 14.7225 106.317 14.0775V21H110.75C112.407 21 113.75 19.6569 113.75 18V3H109.317Z" fill="#BE2034"/>
<rect x="138" width="36" height="24" rx="4" fill="white"/>
<path fill-rule="evenodd" clip-rule="evenodd" d="M141 0H171C172.657 0 174 1.34315 174 3V21C174 22.6569 172.657 24 171 24H141C139.343 24 138 22.6569 138 21V3C138 1.34315 139.343 0 141 0ZM172.5 3C172.5 2.17157 171.828 1.5 171 1.5H141C140.172 1.5 139.5 2.17157 139.5 3V21C139.5 21.8284 140.172 22.5 141 22.5H171C171.828 22.5 172.5 21.8284 172.5 21V3Z" fill="#CCCCCB"/>
<path d="M153.254 18.9903L153.517 17.3403H152.932H150.172L152.092 5.14525C152.097 5.10747 152.116 5.07283 152.144 5.04775C152.175 5.02446 152.211 5.01133 152.249 5.01025H156.907C158.459 5.01025 159.524 5.33275 160.087 5.97025C160.336 6.23765 160.509 6.56636 160.589 6.92275C160.677 7.35588 160.677 7.80213 160.589 8.23525V8.61025L160.852 8.76025C161.052 8.85986 161.232 8.99449 161.384 9.15775C161.614 9.4345 161.762 9.76942 161.812 10.1253C161.868 10.5904 161.848 11.0616 161.752 11.5203C161.653 12.0773 161.458 12.6129 161.174 13.1028C160.946 13.4955 160.636 13.8354 160.267 14.1003C159.895 14.3538 159.481 14.5392 159.044 14.6478C158.554 14.7714 158.05 14.8319 157.544 14.8278H157.177C156.919 14.8278 156.67 14.918 156.472 15.0828C156.273 15.2505 156.142 15.4852 156.104 15.7428V15.8928L155.647 18.8028V18.9153C155.652 18.9349 155.652 18.9556 155.647 18.9753H155.602L153.254 18.9903Z" fill="#253D80"/>
<path d="M161.099 8.31006L161.054 8.58756C160.439 11.7376 158.332 12.8326 155.647 12.8326H154.282C153.953 12.8322 153.673 13.0707 153.622 13.3951L152.924 17.8351L152.722 19.0951C152.707 19.196 152.736 19.2985 152.802 19.3762C152.868 19.4538 152.965 19.499 153.067 19.5001H155.497C155.785 19.4998 156.03 19.2898 156.074 19.0051V18.8851L156.532 15.9826V15.8251C156.573 15.5415 156.815 15.3308 157.102 15.3301H157.499C159.847 15.3301 161.692 14.3776 162.224 11.5801C162.512 10.6239 162.335 9.58797 161.744 8.78256C161.557 8.59042 161.339 8.43075 161.099 8.31006V8.31006Z" fill="#189BD7"/>
<path d="M160.455 8.05488L160.17 7.97988L159.855 7.91988C159.458 7.86049 159.056 7.8329 158.655 7.83738H154.995C154.909 7.83504 154.824 7.85303 154.747 7.88988C154.573 7.9713 154.452 8.13482 154.425 8.32488L153.675 13.2524V13.3949C153.726 13.0705 154.006 12.832 154.335 12.8324H155.7C158.385 12.8324 160.492 11.7374 161.107 8.58738L161.152 8.30988C160.991 8.2264 160.823 8.15617 160.65 8.09988L160.455 8.05488Z" fill="#242E65"/>
<path d="M154.425 8.325C154.452 8.13493 154.573 7.97142 154.747 7.89C154.824 7.85315 154.909 7.83515 154.995 7.8375H158.655C159.056 7.83302 159.457 7.86061 159.855 7.92L160.17 7.98L160.455 8.055L160.597 8.1C160.77 8.15629 160.938 8.22652 161.1 8.31C161.343 7.37297 161.12 6.37589 160.5 5.6325C159.75 4.8375 158.52 4.5 156.915 4.5H152.25C151.921 4.4996 151.641 4.73817 151.59 5.0625L149.647 17.37C149.63 17.4861 149.663 17.604 149.74 17.6932C149.816 17.7824 149.927 17.8341 150.045 17.835H152.925L153.675 13.2525L154.425 8.325Z" fill="#253D80"/>
</svg>
