<svg width="22" height="24" viewBox="0 0 22 24" fill="none" xmlns="http://www.w3.org/2000/svg">
<path d="M6.36066 12.2974C6.36066 11.6511 5.9119 11.2654 5.11997 11.2654C4.79692 11.2654 4.57805 11.2965 4.46328 11.3278V13.403C4.59897 13.4338 4.76576 13.4444 4.99452 13.4444C5.83944 13.4444 6.36066 13.017 6.36066 12.2974Z" fill="#439665"/>
<path d="M11.2624 11.2862C10.9075 11.2862 10.6786 11.3175 10.5426 11.3487V15.9467C10.6783 15.9784 10.8973 15.9784 11.0955 15.9784C12.5342 15.9885 13.4726 15.1965 13.4726 13.5177C13.4831 12.0574 12.6279 11.2862 11.2624 11.2862Z" fill="#439665"/>
<path d="M20.6545 8.58469H20.0782V5.80404C20.0782 5.7867 20.0755 5.76923 20.0732 5.75167C20.0723 5.64125 20.0372 5.5328 19.9616 5.44687L15.3342 0.160958C15.3328 0.159608 15.3315 0.159128 15.3305 0.157647C15.303 0.126841 15.2708 0.10122 15.2368 0.0790412C15.2267 0.0722874 15.2166 0.066623 15.206 0.0607842C15.1766 0.0447058 15.1454 0.0313725 15.1132 0.0217429C15.1045 0.0193028 15.0966 0.0157298 15.0879 0.013464C15.053 0.00518517 15.0167 0 14.9799 0H3.60768C3.08838 0 2.66651 0.422352 2.66651 0.941218V8.58447H2.09034C1.34747 8.58447 0.745117 9.18656 0.745117 9.9297V16.9251C0.745117 17.6677 1.34747 18.2702 2.09034 18.2702H2.66655V23.0588C2.66655 23.5776 3.08842 24 3.60773 24H19.1371C19.6559 24 20.0783 23.5776 20.0783 23.0588V18.2702H20.6546C21.3972 18.2702 21.9997 17.6677 21.9997 16.9251V9.92992C21.9997 9.18682 21.3972 8.58469 20.6545 8.58469ZM3.60768 0.941393H14.5093V5.75676C14.5093 6.01676 14.7203 6.22735 14.9799 6.22735H19.1371V8.58499H3.60768V0.941393ZM15.1614 13.465C15.1614 14.8104 14.6715 15.738 13.9928 16.3118C13.2533 16.9269 12.127 17.2187 10.7512 17.2187C9.92763 17.2187 9.34388 17.1665 8.94719 17.1146V10.212C9.53103 10.1183 10.2926 10.0662 11.0955 10.0662C12.4294 10.0662 13.295 10.3062 13.973 10.8168C14.7026 11.359 15.1614 12.2242 15.1614 13.465ZM2.88873 10.212C3.37853 10.129 4.06703 10.0662 5.0367 10.0662C6.0167 10.0662 6.71543 10.2539 7.18445 10.6295C7.6329 10.9838 7.93456 11.5678 7.93456 12.256C7.93456 12.9444 7.7058 13.5282 7.28842 13.9242C6.74628 14.4352 5.94354 14.6647 5.00489 14.6647C4.7967 14.6647 4.60838 14.6541 4.46306 14.6332V17.1461H2.88873V10.212ZM19.1371 22.804H3.60768V18.2702H19.1371V22.804H19.1371ZM20.5008 11.4216H17.7998V13.0273H20.3232V14.3203H17.7998V17.1459H16.2053V10.1183H20.5008V11.4216Z" fill="#439665"/>
</svg>
