<svg width="27" height="30" viewBox="0 0 27 30" fill="none" xmlns="http://www.w3.org/2000/svg">
<path d="M7.45107 15.3717C7.45107 14.5639 6.89013 14.0817 5.9002 14.0817C5.49639 14.0817 5.22281 14.1207 5.07934 14.1597V16.7538C5.24895 16.7923 5.45745 16.8055 5.7434 16.8055C6.79955 16.8055 7.45107 16.2712 7.45107 15.3717Z" fill="#439665"/>
<path d="M13.5782 14.1078C13.1346 14.1078 12.8485 14.1468 12.6785 14.1859V19.9333C12.8482 19.9731 13.1219 19.9731 13.3696 19.9731C15.1679 19.9856 16.341 18.9956 16.341 16.8971C16.3542 15.0718 15.2852 14.1078 13.5782 14.1078Z" fill="#439665"/>
<path d="M25.3184 10.7309H24.598V7.25505C24.598 7.23337 24.5946 7.21153 24.5917 7.18958C24.5906 7.05157 24.5467 6.916 24.4522 6.80859L18.668 0.201198C18.6663 0.199509 18.6646 0.19891 18.6634 0.197058C18.6289 0.158551 18.5887 0.126525 18.5463 0.0988016C18.5337 0.0903593 18.521 0.0832787 18.5078 0.0759802C18.471 0.0558822 18.4319 0.0392156 18.3917 0.0271786C18.3808 0.0241285 18.371 0.0196623 18.3601 0.01683C18.3165 0.00648147 18.2711 0 18.2251 0H4.00985C3.36072 0 2.83338 0.52794 2.83338 1.17652V10.7306H2.11317C1.18458 10.7306 0.431641 11.4832 0.431641 12.4121V21.1564C0.431641 22.0847 1.18458 22.8378 2.11317 22.8378H2.83343V28.8235C2.83343 29.472 3.36077 30 4.0099 30H23.4216C24.0702 30 24.5981 29.4721 24.5981 28.8235V22.8378H25.3185C26.2468 22.8378 26.9999 22.0847 26.9999 21.1564V12.4124C26.9998 11.4835 26.2467 10.7309 25.3184 10.7309ZM4.00985 1.17674H17.6369V7.19596C17.6369 7.52096 17.9006 7.78419 18.2251 7.78419H23.4216V10.7312H4.00985V1.17674ZM18.452 16.8313C18.452 18.513 17.8397 19.6725 16.9913 20.3897C16.0669 21.1586 14.659 21.5234 12.9392 21.5234C11.9098 21.5234 11.1801 21.4582 10.6842 21.3933V12.765C11.414 12.6479 12.366 12.5827 13.3696 12.5827C15.037 12.5827 16.119 12.8827 16.9665 13.5209C17.8785 14.1988 18.452 15.2803 18.452 16.8313ZM3.11116 12.765C3.72341 12.6613 4.58403 12.5827 5.79612 12.5827C7.02112 12.5827 7.89454 12.8174 8.48081 13.2868C9.04138 13.7297 9.41844 14.4597 9.41844 15.32C9.41844 16.1805 9.1325 16.9103 8.61077 17.4052C7.9331 18.044 6.92967 18.3309 5.75636 18.3309C5.49612 18.3309 5.26072 18.3177 5.07907 18.2915V21.4326H3.11116V12.765ZM23.4216 28.505H4.00985V22.8378H23.4216V28.505H23.4216ZM25.1263 14.277H21.75V16.2842H24.9043V17.9004H21.75V21.4324H19.7569V12.6479H25.1263V14.277Z" fill="#439665"/>
</svg>
