<svg width="14" height="14" viewBox="0 0 14 14" fill="none" xmlns="http://www.w3.org/2000/svg">
<path opacity="0.5" fill-rule="evenodd" clip-rule="evenodd" d="M7.76866 0.189453H13.2211C13.6495 0.189453 14 0.530486 14 0.947304V4.73656C14 5.15338 13.6495 5.49441 13.2211 5.49441H9.3265L6.98975 7.76796V0.947304C6.98975 0.530486 7.34026 0.189453 7.76866 0.189453ZM10.6429 9.26093L12.6213 9.48071C13.408 9.57165 14 10.2158 13.9922 10.9812V12.2923C13.9922 13.1487 13.26 13.8611 12.3799 13.808C5.73569 13.4064 0.415687 8.23783 0.00286133 1.76578C-0.0516629 0.909411 0.680519 0.197032 1.5607 0.197032H2.90822C3.70272 0.197032 4.3648 0.772998 4.45827 1.53843L4.68415 3.44821C4.73868 3.9105 4.5751 4.36521 4.24017 4.69109L2.79917 6.09311C3.92081 8.24541 5.7279 9.99604 7.93224 11.0873L9.36544 9.6929C9.70038 9.36703 10.1677 9.20788 10.6429 9.26093Z" fill="#6E768E"/>
</svg>
