<svg width="13" height="12" viewBox="0 0 13 12" fill="none" xmlns="http://www.w3.org/2000/svg">
<path opacity="0.5" fill-rule="evenodd" clip-rule="evenodd" d="M7.48504 0.0151367H12.2764C12.6529 0.0151367 12.9609 0.314825 12.9609 0.681111V4.01098C12.9609 4.37727 12.6529 4.67696 12.2764 4.67696H8.85402L6.80056 6.67488V0.681111C6.80056 0.314825 7.10858 0.0151367 7.48504 0.0151367ZM10.0108 7.98685L11.7494 8.17998C12.4407 8.2599 12.9609 8.82597 12.9541 9.49861V10.6507C12.9541 11.4033 12.3107 12.0293 11.5372 11.9827C5.69854 11.6297 1.0235 7.08778 0.660718 1.40036C0.612804 0.647812 1.25622 0.0217965 2.02969 0.0217965H3.21385C3.91203 0.0217965 4.49384 0.527937 4.57598 1.20057L4.77448 2.87883C4.82239 3.28507 4.67865 3.68465 4.38432 3.97102L3.11802 5.20307C4.10368 7.09444 5.69169 8.63284 7.62879 9.59184L8.88824 8.36645C9.18257 8.08008 9.59326 7.94023 10.0108 7.98685Z" fill="#6E768E"/>
</svg>
