<svg width="39" height="39" viewBox="0 0 39 39" fill="none" xmlns="http://www.w3.org/2000/svg">
<path d="M37.2851 19.5C38.2322 19.5 39.0078 18.7307 38.9247 17.7872C38.6112 14.2321 37.3266 10.8191 35.1958 7.92888C32.7248 4.57698 29.2456 2.10417 25.2676 0.872475C21.2896 -0.359218 17.0218 -0.285096 13.089 1.08399C9.15623 2.45307 5.765 5.04521 3.41183 8.48089C1.05866 11.9166 -0.132844 16.0154 0.0117602 20.1771C0.156364 24.3389 1.62948 28.3451 4.21544 31.6092C6.80139 34.8732 10.3644 37.2238 14.3827 38.3166C17.8476 39.2589 21.4942 39.2234 24.9223 38.231C25.8321 37.9676 26.2691 36.9664 25.9269 36.0833C25.5846 35.2001 24.5926 34.7713 23.6781 35.0175C20.938 35.7553 18.0406 35.7569 15.2828 35.0069C11.9712 34.1063 9.03494 32.1693 6.90383 29.4793C4.77271 26.7893 3.5587 23.4878 3.43953 20.058C3.32036 16.6283 4.30229 13.2504 6.24157 10.419C8.18084 7.58765 10.9756 5.45145 14.2167 4.32317C17.4577 3.19489 20.9749 3.13381 24.2531 4.14886C27.5314 5.16391 30.3987 7.20178 32.4351 9.96412C34.131 12.2645 35.1765 14.9668 35.4788 17.7883C35.5796 18.73 36.338 19.5 37.2851 19.5Z" fill="url(#paint0_angular)"/>
<defs>
<radialGradient id="paint0_angular" cx="0" cy="0" r="1" gradientUnits="userSpaceOnUse" gradientTransform="translate(19.5 19.5) rotate(64.7989) scale(18.7883)">
<stop stop-color="#439665"/>
<stop offset="0.828125" stop-color="#439665" stop-opacity="0"/>
</radialGradient>
</defs>
</svg>
