<svg width="26" height="26" viewBox="0 0 26 26" fill="none" xmlns="http://www.w3.org/2000/svg">
<path fill-rule="evenodd" clip-rule="evenodd" d="M10.4393 7C8.53981 7 7 8.53981 7 10.4393V15.5607C7 17.4602 8.53981 19 10.4393 19H15.5607C17.4602 19 19 17.4602 19 15.5607V10.4393C19 8.53981 17.4602 7 15.5607 7H10.4393ZM15.5234 13C15.5234 14.3936 14.3936 15.5234 13 15.5234C11.6064 15.5234 10.4766 14.3936 10.4766 13C10.4766 11.6064 11.6064 10.4766 13 10.4766C14.3936 10.4766 15.5234 11.6064 15.5234 13ZM16.9439 9.78505C16.9439 10.1876 16.6176 10.514 16.215 10.514C15.8124 10.514 15.486 10.1876 15.486 9.78505C15.486 9.38245 15.8124 9.05607 16.215 9.05607C16.6176 9.05607 16.9439 9.38245 16.9439 9.78505Z" fill="#439665"/>
<circle cx="13" cy="13" r="12" stroke="#439665" stroke-width="2"/>
</svg>
