<svg width="26" height="26" viewBox="0 0 26 26" fill="none" xmlns="http://www.w3.org/2000/svg">
<path fill-rule="evenodd" clip-rule="evenodd" d="M10.3025 11.1667C9.25048 11.6289 8.16957 12.1037 7.18118 12.6515C6.66508 13.0317 7.35102 13.3007 7.99454 13.553C8.09685 13.5931 8.19808 13.6328 8.29324 13.6725C8.37242 13.6969 8.45295 13.7228 8.53456 13.7489C9.25027 13.9783 10.0483 14.2342 10.7432 13.8493C11.8846 13.1896 12.9618 12.4268 14.0381 11.6647C14.3908 11.4149 14.7433 11.1653 15.098 10.9194C15.1147 10.9087 15.1334 10.8964 15.1539 10.8831C15.4561 10.686 16.1356 10.2427 15.8843 10.8535C15.2899 11.5076 14.6532 12.0866 14.013 12.6687C13.5816 13.0611 13.1486 13.4548 12.7259 13.874C12.3578 14.1749 11.9755 14.7802 12.3877 15.2017C13.3372 15.8705 14.3015 16.5231 15.2652 17.1753C15.5789 17.3875 15.8924 17.5997 16.2054 17.8125C16.7358 18.2386 17.5648 17.8939 17.6814 17.228C17.7333 16.9218 17.7853 16.6155 17.8374 16.3092C18.1251 14.6164 18.413 12.9231 18.6673 11.2248C18.7018 10.9584 18.741 10.6921 18.7802 10.4255C18.8752 9.7796 18.9703 9.13287 19 8.48346C18.9234 7.83539 18.1425 7.97788 17.7079 8.12361C15.474 8.9789 13.2624 9.89758 11.0596 10.8325C10.8101 10.9437 10.5571 11.0548 10.3025 11.1667Z" fill="#439665"/>
<circle cx="13" cy="13" r="12" stroke="#439665" stroke-width="2"/>
</svg>
