<svg width="26" height="26" viewBox="0 0 26 26" fill="none" xmlns="http://www.w3.org/2000/svg">
<circle cx="13" cy="13" r="12" stroke="#439665" stroke-width="2"/>
<path fill-rule="evenodd" clip-rule="evenodd" d="M13.0251 18.8969C16.3194 18.8955 18.9987 16.2284 19 12.9506C19.0006 11.3618 18.3797 9.86784 17.2517 8.74392C16.1236 7.61994 14.6234 7.00069 13.0251 7C9.73175 7 7.0514 9.66737 7.05009 12.9459C7.04965 13.994 7.32478 15.0169 7.84765 15.9187L7 19L10.1674 18.1731C11.0401 18.6468 12.0227 18.8965 13.0227 18.8969H13.0251ZM8.43457 17.5873L10.3141 17.0966L10.4955 17.2037C11.258 17.654 12.132 17.8923 13.0231 17.8926H13.0251C15.7623 17.8926 17.9901 15.6755 17.9912 12.9503C17.9917 11.6297 17.4756 10.388 16.538 9.45374C15.6004 8.51954 14.3535 8.00481 13.0271 8.00435C10.2878 8.00435 8.05998 10.2213 8.05889 12.9463C8.05851 13.8802 8.32106 14.7896 8.81818 15.5765L8.93626 15.7635L8.43457 17.5873ZM16.0352 14.3646C16.0052 14.3148 15.9349 14.2809 15.8308 14.2309C15.8055 14.2187 15.7783 14.2056 15.7491 14.1911C15.5998 14.1167 14.8658 13.7573 14.729 13.7077C14.5922 13.6581 14.4926 13.6334 14.3931 13.7821C14.2936 13.9308 14.0075 14.2655 13.9204 14.3646C13.8333 14.4638 13.7462 14.4762 13.5969 14.4018C13.5726 14.3897 13.5393 14.3753 13.4983 14.3576C13.2881 14.2669 12.8734 14.0879 12.3964 13.6644C11.9525 13.2704 11.6529 12.7839 11.5658 12.6351C11.4787 12.4864 11.5565 12.406 11.6313 12.3319C11.676 12.2875 11.7274 12.2253 11.7787 12.1631C11.8045 12.1318 11.8303 12.1006 11.8552 12.0716C11.9187 11.9979 11.9462 11.942 11.9835 11.8661C11.9901 11.8526 11.997 11.8386 12.0045 11.8237C12.0543 11.7245 12.0294 11.6378 11.9921 11.5634C11.9671 11.5137 11.8251 11.1697 11.6967 10.8585C11.6332 10.7046 11.5729 10.5586 11.5318 10.4602C11.4248 10.2044 11.3163 10.2051 11.2293 10.2056C11.2178 10.2056 11.2066 10.2057 11.1959 10.2052C11.1089 10.2008 11.0092 10.1999 10.9097 10.1999C10.8102 10.1999 10.6485 10.2371 10.5116 10.3858C10.5028 10.3954 10.493 10.4058 10.4824 10.4171C10.3269 10.5822 9.98911 10.9409 9.98911 11.6253C9.98911 12.3528 10.5185 13.0558 10.5975 13.1607L10.5987 13.1623C10.6036 13.1688 10.6124 13.1813 10.6249 13.1992C10.8036 13.4543 11.7495 14.8043 13.1491 15.4058C13.5053 15.5589 13.7833 15.6503 14.0002 15.7188C14.3578 15.8319 14.6833 15.8159 14.9405 15.7776C15.2273 15.735 15.8237 15.4182 15.9482 15.0712C16.0725 14.7241 16.0725 14.4266 16.0352 14.3646Z" fill="#439665"/>
</svg>
