<svg width="38" height="38" viewBox="0 0 38 38" fill="none" xmlns="http://www.w3.org/2000/svg">
<path d="M0 6C0 2.68629 2.68629 0 6 0H32C35.3137 0 38 2.68629 38 6V32C38 35.3137 35.3137 38 32 38H6C2.68629 38 0 35.3137 0 32V6Z" fill="#439665"/>
<path d="M25.1016 19.7902H15.0659L19.4503 23.6467C19.8007 23.9549 19.8007 24.4607 19.4503 24.7689C19.1 25.0771 18.5339 25.0771 18.1835 24.7689L12.2628 19.5611C11.9124 19.2529 11.9124 18.755 12.2628 18.4468L18.1746 13.2311C18.3424 13.0832 18.5703 13 18.808 13C19.0456 13 19.2735 13.0832 19.4414 13.2311C19.7918 13.5393 19.7918 14.0372 19.4414 14.3454L15.0659 18.2097H25.1016C25.5957 18.2097 26 18.5654 26 19C26 19.4346 25.5957 19.7902 25.1016 19.7902Z" fill="white"/>
</svg>
