<svg width="13" height="16" viewBox="0 0 13 16" fill="none" xmlns="http://www.w3.org/2000/svg">
<path opacity="0.5" fill-rule="evenodd" clip-rule="evenodd" d="M8.70222 0.257778L9.33333 0.888889H11.5556C12.0444 0.888889 12.4444 1.28889 12.4444 1.77778C12.4444 2.26667 12.0444 2.66667 11.5556 2.66667H0.888889C0.4 2.66667 0 2.26667 0 1.77778C0 1.28889 0.4 0.888889 0.888889 0.888889H3.11111L3.74222 0.257778C3.90222 0.0977778 4.13333 0 4.36444 0H8.08C8.31111 0 8.54222 0.0977778 8.70222 0.257778ZM0.888889 14.2222C0.888889 15.2 1.68889 16 2.66667 16H9.77778C10.7556 16 11.5556 15.2 11.5556 14.2222V5.33333C11.5556 4.35556 10.7556 3.55556 9.77778 3.55556H2.66667C1.68889 3.55556 0.888889 4.35556 0.888889 5.33333V14.2222ZM3.55556 5.33333H8.88889C9.37778 5.33333 9.77778 5.73333 9.77778 6.22222V13.3333C9.77778 13.8222 9.37778 14.2222 8.88889 14.2222H3.55556C3.06667 14.2222 2.66667 13.8222 2.66667 13.3333V6.22222C2.66667 5.73333 3.06667 5.33333 3.55556 5.33333Z" fill="#6E768E"/>
</svg>
