<svg width="30" height="30" viewBox="0 0 30 30" fill="none" xmlns="http://www.w3.org/2000/svg">
<g opacity="0.6">
<path d="M6.25 21.875H5.625V23.125H6.25C6.6 23.125 6.875 22.85 6.875 22.5C6.875 22.15 6.6 21.875 6.25 21.875Z" fill="#6E768E"/>
<path d="M12.8125 21.875H11.875V25.625H12.8125C12.9875 25.625 13.125 25.4875 13.125 25.3125V22.1875C13.125 22.0125 12.9875 21.875 12.8125 21.875Z" fill="#6E768E"/>
<path d="M21.5625 19.375C15.5375 19.375 10.625 14.4625 10.625 8.4375C10.625 5.05 12.175 2.0125 14.6125 4.47035e-07H3.4375C1.5375 4.47035e-07 0 1.5375 0 3.4375V26.5625C0 28.4625 1.5375 30 3.4375 30H21.5625C23.4625 30 25 28.4625 25 26.5625V18.825C23.925 19.175 22.7625 19.375 21.5625 19.375ZM6.25 25H5.625V26.5625C5.625 27.075 5.2 27.5 4.6875 27.5C4.175 27.5 3.75 27.075 3.75 26.5625V20.9375C3.75 20.425 4.175 20 4.6875 20H6.25C7.625 20 8.75 21.125 8.75 22.5C8.75 23.875 7.625 25 6.25 25ZM15 25.3125C15 26.5125 14.0125 27.5 12.8125 27.5H10.9375C10.425 27.5 10 27.075 10 26.5625V20.9375C10 20.425 10.425 20 10.9375 20H12.8125C14.0125 20 15 20.9875 15 22.1875V25.3125ZM20.3125 23.125C20.83 23.125 21.25 23.545 21.25 24.0625C21.25 24.58 20.83 25 20.3125 25H18.125V26.5625C18.125 27.08 17.705 27.5 17.1875 27.5C16.67 27.5 16.25 27.08 16.25 26.5625V22.1875C16.25 20.9813 17.2313 20 18.4375 20H20.3125C20.83 20 21.25 20.42 21.25 20.9375C21.25 21.455 20.83 21.875 20.3125 21.875H18.4375C18.265 21.875 18.125 22.015 18.125 22.1875V23.125H20.3125Z" fill="#6E768E"/>
<path d="M21.5625 0C16.91 0 13.125 3.785 13.125 8.4375C13.125 13.09 16.91 16.875 21.5625 16.875C26.215 16.875 30 13.09 30 8.4375C30 3.785 26.215 0 21.5625 0ZM25 9.6875H22.8125V11.875C22.8125 12.565 22.2525 13.125 21.5625 13.125C20.8725 13.125 20.3125 12.565 20.3125 11.875V9.6875H18.125C17.435 9.6875 16.875 9.1275 16.875 8.4375C16.875 7.7475 17.435 7.1875 18.125 7.1875H20.3125V5C20.3125 4.31 20.8725 3.75 21.5625 3.75C22.2525 3.75 22.8125 4.31 22.8125 5V7.1875H25C25.69 7.1875 26.25 7.7475 26.25 8.4375C26.25 9.1275 25.69 9.6875 25 9.6875Z" fill="#6E768E"/>
</g>
</svg>
