<svg width="17" height="17" viewBox="0 0 17 17" fill="none" xmlns="http://www.w3.org/2000/svg">
<g opacity="0.6">
<path d="M3.54167 12.3958H3.1875V13.1042H3.54167C3.74 13.1042 3.89583 12.9483 3.89583 12.75C3.89583 12.5517 3.74 12.3958 3.54167 12.3958Z" fill="#6E768E"/>
<path d="M7.26042 12.3958H6.72917V14.5208H7.26042C7.35958 14.5208 7.4375 14.4429 7.4375 14.3438V12.5729C7.4375 12.4738 7.35958 12.3958 7.26042 12.3958Z" fill="#6E768E"/>
<path d="M12.2188 10.9792C8.80458 10.9792 6.02083 8.19542 6.02083 4.78125C6.02083 2.86167 6.89917 1.14042 8.28042 2.5332e-07H1.94792C0.87125 2.5332e-07 0 0.87125 0 1.94792V15.0521C0 16.1287 0.87125 17 1.94792 17H12.2188C13.2954 17 14.1667 16.1287 14.1667 15.0521V10.6675C13.5575 10.8658 12.8988 10.9792 12.2188 10.9792ZM3.54167 14.1667H3.1875V15.0521C3.1875 15.3425 2.94667 15.5833 2.65625 15.5833C2.36583 15.5833 2.125 15.3425 2.125 15.0521V11.8646C2.125 11.5742 2.36583 11.3333 2.65625 11.3333H3.54167C4.32083 11.3333 4.95833 11.9708 4.95833 12.75C4.95833 13.5292 4.32083 14.1667 3.54167 14.1667ZM8.5 14.3438C8.5 15.0238 7.94042 15.5833 7.26042 15.5833H6.19792C5.9075 15.5833 5.66667 15.3425 5.66667 15.0521V11.8646C5.66667 11.5742 5.9075 11.3333 6.19792 11.3333H7.26042C7.94042 11.3333 8.5 11.8929 8.5 12.5729V14.3438ZM11.5104 13.1042C11.8037 13.1042 12.0417 13.3422 12.0417 13.6354C12.0417 13.9287 11.8037 14.1667 11.5104 14.1667H10.2708V15.0521C10.2708 15.3453 10.0328 15.5833 9.73958 15.5833C9.44633 15.5833 9.20833 15.3453 9.20833 15.0521V12.5729C9.20833 11.8894 9.76438 11.3333 10.4479 11.3333H11.5104C11.8037 11.3333 12.0417 11.5713 12.0417 11.8646C12.0417 12.1578 11.8037 12.3958 11.5104 12.3958H10.4479C10.3502 12.3958 10.2708 12.4752 10.2708 12.5729V13.1042H11.5104Z" fill="#6E768E"/>
<path d="M12.2188 0C9.58233 0 7.4375 2.14483 7.4375 4.78125C7.4375 7.41767 9.58233 9.5625 12.2188 9.5625C14.8552 9.5625 17 7.41767 17 4.78125C17 2.14483 14.8552 0 12.2188 0ZM14.1667 5.48958H12.9271V6.72917C12.9271 7.12017 12.6097 7.4375 12.2188 7.4375C11.8278 7.4375 11.5104 7.12017 11.5104 6.72917V5.48958H10.2708C9.87983 5.48958 9.5625 5.17225 9.5625 4.78125C9.5625 4.39025 9.87983 4.07292 10.2708 4.07292H11.5104V2.83333C11.5104 2.44233 11.8278 2.125 12.2188 2.125C12.6097 2.125 12.9271 2.44233 12.9271 2.83333V4.07292H14.1667C14.5577 4.07292 14.875 4.39025 14.875 4.78125C14.875 5.17225 14.5577 5.48958 14.1667 5.48958Z" fill="#6E768E"/>
</g>
</svg>
