<svg width="40" height="40" viewBox="0 0 40 40" fill="none" xmlns="http://www.w3.org/2000/svg">
<g id="add_photo_alternate_24px" opacity="0.6">
<path id="icon/image/add_photo_alternate_24px" fill-rule="evenodd" clip-rule="evenodd" d="M34.2004 9.1665H30.8337V5.79984C30.8337 4.89984 30.1004 4.1665 29.2004 4.1665H29.1504C28.2337 4.1665 27.5004 4.89984 27.5004 5.79984V9.1665H24.1504C23.2504 9.1665 22.517 9.89984 22.5004 10.7998V10.8498C22.5004 11.7665 23.2337 12.4998 24.1504 12.4998H27.5004V15.8498C27.5004 16.7498 28.2337 17.4998 29.1504 17.4832H29.2004C30.1004 17.4832 30.8337 16.7498 30.8337 15.8498V12.4998H34.2004C35.1004 12.4998 35.8337 11.7665 35.8337 10.8665V10.7998C35.8337 9.89984 35.1004 9.1665 34.2004 9.1665ZM25.8337 15.8498V14.1665H24.1503C23.267 14.1665 22.4337 13.8165 21.8003 13.1998C21.1837 12.5665 20.8337 11.7332 20.8337 10.7998C20.8337 10.1998 21.0003 9.64984 21.2837 9.1665H7.50033C5.66699 9.1665 4.16699 10.6665 4.16699 12.4998V32.4998C4.16699 34.3332 5.66699 35.8332 7.50033 35.8332H27.5003C29.3337 35.8332 30.8337 34.3332 30.8337 32.4998V18.6998C30.3337 18.9832 29.767 19.1665 29.1337 19.1665C27.317 19.1498 25.8337 17.6665 25.8337 15.8498ZM9.16681 32.4997H25.7668C26.4668 32.4997 26.8501 31.6997 26.4168 31.1497L21.5001 25.0164C21.1668 24.5831 20.5168 24.5997 20.1835 25.0331L15.8335 30.8331L13.1668 26.8164C12.8335 26.3497 12.1501 26.3164 11.8001 26.7831L8.50014 31.1664C8.08348 31.7164 8.48348 32.4997 9.16681 32.4997Z" fill="#6E768E"/>
</g>
</svg>
