<svg width="14" height="14" viewBox="0 0 14 14" fill="none" xmlns="http://www.w3.org/2000/svg">
<path fill-rule="evenodd" clip-rule="evenodd" d="M7.02931 13.8797C10.8726 13.8781 13.9985 10.7665 14 6.9424C14.0007 5.08877 13.2763 3.34581 11.9603 2.03457C10.6442 0.723268 8.89399 0.000801086 7.02924 0C3.18704 0 0.0599722 3.11193 0.0584429 6.93692C0.0579198 8.15961 0.378906 9.35303 0.988921 10.4051L0 14L3.69529 13.0353C4.71344 13.588 5.85978 13.8793 7.02642 13.8797H7.02931ZM1.67366 12.3519L3.8665 11.7794L4.07807 11.9044C4.96762 12.4297 5.98731 12.7077 7.02696 12.7081H7.02931C10.2227 12.7081 12.8218 10.1214 12.823 6.942C12.8236 5.40128 12.2216 3.95261 11.1277 2.8627C10.0338 1.77279 8.57911 1.17227 7.03159 1.17174C3.83576 1.17174 1.23664 3.75818 1.23538 6.93733C1.23493 8.02685 1.54124 9.08791 2.12121 10.0059L2.25896 10.2241L1.67366 12.3519ZM10.5411 8.59208C10.5061 8.53389 10.4241 8.49443 10.3026 8.436C10.2731 8.42183 10.2413 8.40654 10.2073 8.3896C10.0331 8.30284 9.17682 7.88354 9.01713 7.82564C8.85751 7.76781 8.74135 7.73892 8.62525 7.9124C8.50916 8.0859 8.17536 8.47639 8.07376 8.59208C7.97215 8.70773 7.87054 8.72225 7.69643 8.63546C7.66798 8.62128 7.62919 8.60454 7.58131 8.58387C7.3361 8.47802 6.85234 8.26919 6.29574 7.7751C5.77795 7.31544 5.42839 6.74783 5.32679 6.57429C5.22519 6.40075 5.31596 6.30697 5.40316 6.22053C5.45533 6.1688 5.51524 6.09619 5.57516 6.02356C5.60524 5.98711 5.63532 5.95065 5.66443 5.91683C5.73844 5.83083 5.77051 5.76566 5.81412 5.67706C5.82182 5.66142 5.82988 5.64504 5.83859 5.62769C5.89665 5.51195 5.86763 5.41076 5.82407 5.32399C5.79494 5.26593 5.62934 4.86469 5.47946 4.50155C5.40535 4.32199 5.33508 4.15175 5.28706 4.03691C5.16223 3.73849 5.03569 3.73923 4.93419 3.73982C4.92072 3.7399 4.9077 3.73998 4.89518 3.73935C4.7937 3.73428 4.67746 3.73321 4.56136 3.73321C4.44525 3.73321 4.25654 3.7766 4.09689 3.95014C4.08665 3.96127 4.07522 3.97341 4.0628 3.9866C3.88139 4.17924 3.48729 4.59775 3.48729 5.39621C3.48729 6.24499 4.10491 7.0651 4.19709 7.18749L4.19849 7.18936C4.20419 7.19694 4.21441 7.21152 4.22902 7.23238C4.43758 7.53005 5.54105 9.10506 7.17391 9.80675C7.58946 9.98536 7.91387 10.092 8.16685 10.1719C8.58407 10.3039 8.96381 10.2852 9.26387 10.2406C9.59854 10.1908 10.2944 9.82128 10.4396 9.41639C10.5846 9.01142 10.5846 8.66435 10.5411 8.59208Z" fill="#439665"/>
</svg>
