<svg width="20" height="20" viewBox="0 0 20 20" fill="none" xmlns="http://www.w3.org/2000/svg">
<path fill-rule="evenodd" clip-rule="evenodd" d="M14.6545 12.8978H13.7283L13.4 12.5812C14.8069 10.9398 15.5339 8.7004 15.1352 6.3203C14.5842 3.06086 11.864 0.457994 8.58115 0.0593566C3.62164 -0.550324 -0.540599 3.62364 0.057357 8.58315C0.455994 11.866 3.05886 14.5862 6.3183 15.1372C8.6984 15.5359 10.9378 14.8089 12.5792 13.402L12.8958 13.7303V14.6565L17.8905 19.6395C18.3712 20.1202 19.145 20.1202 19.6257 19.6395L19.6375 19.6277C20.1182 19.147 20.1182 18.3732 19.6375 17.8925L14.6545 12.8978ZM7.61974 12.8978C4.70031 12.8978 2.34366 10.5412 2.34366 7.62174C2.34366 4.70231 4.70031 2.34566 7.61974 2.34566C10.5392 2.34566 12.8958 4.70231 12.8958 7.62174C12.8958 10.5412 10.5392 12.8978 7.61974 12.8978ZM7.03351 5.27681C7.03351 4.94852 7.29145 4.69058 7.61974 4.69058C7.94803 4.69058 8.20597 4.94852 8.20597 5.27681V7.0355H9.96466C10.2929 7.0355 10.5509 7.29345 10.5509 7.62174C10.5509 7.95003 10.2929 8.20797 9.96466 8.20797H8.20597V9.96666C8.20597 10.2949 7.94803 10.5529 7.61974 10.5529C7.29145 10.5529 7.03351 10.2949 7.03351 9.96666V8.20797H5.27481C4.94652 8.20797 4.68858 7.95003 4.68858 7.62174C4.68858 7.29345 4.94652 7.0355 5.27481 7.0355H7.03351V5.27681Z" fill="white"/>
</svg>
